<?xml version="1.0" encoding="utf-8"?>
<!-- Generator: Adobe Illustrator 21.1.0, SVG Export Plug-In . SVG Version: 6.00 Build 0)  -->
<svg version="1.1" id="Capa_1" xmlns="http://www.w3.org/2000/svg" xmlns:xlink="http://www.w3.org/1999/xlink" x="0px" y="0px"
	 viewBox="0 0 285 283.5" style="enable-background:new 0 0 285 283.5;" xml:space="preserve">
<style type="text/css">
	.st0{enable-background:new    ;}
	.st1{clip-path:url(#SVGID_2_);}
	.st2{clip-path:url(#SVGID_4_);}
	.st3{clip-path:url(#SVGID_6_);}
	.st4{clip-path:url(#SVGID_6_);fill:#C5473C;}
	.st5{clip-path:url(#SVGID_6_);fill:#DB9637;}
	.st6{clip-path:url(#SVGID_6_);fill:#9EB844;}
	.st7{clip-path:url(#SVGID_6_);fill:#D27931;}
	.st8{clip-path:url(#SVGID_6_);fill:#889E30;}
	.st9{clip-path:url(#SVGID_6_);fill:#2E0000;}
	.st10{clip-path:url(#SVGID_6_);fill:none;stroke:#000000;stroke-linecap:round;stroke-linejoin:round;}
	.st11{clip-path:url(#SVGID_6_);fill:#E4B366;}
	.st12{clip-path:url(#SVGID_6_);fill:#99989B;}
	.st13{clip-path:url(#SVGID_6_);fill:#CEA78A;}
	.st14{clip-path:url(#SVGID_6_);fill:#412B01;}
	.st15{clip-path:url(#SVGID_6_);fill:#4B340D;}
	.st16{clip-path:url(#SVGID_6_);fill:#C9AD27;}
	.st17{filter:url(#Adobe_OpacityMaskFilter);}
	.st18{clip-path:url(#SVGID_8_);}
	.st19{clip-path:url(#SVGID_8_);fill:url(#SVGID_10_);}
	.st20{clip-path:url(#SVGID_8_);mask:url(#SVGID_9_);}
	.st21{clip-path:url(#SVGID_12_);}
	.st22{clip-path:url(#SVGID_14_);fill:url(#SVGID_15_);}
	.st23{clip-path:url(#SVGID_17_);fill:#C9AD27;}
	.st24{filter:url(#Adobe_OpacityMaskFilter_1_);}
	.st25{clip-path:url(#SVGID_19_);}
	.st26{clip-path:url(#SVGID_19_);fill:url(#SVGID_21_);}
	.st27{clip-path:url(#SVGID_19_);mask:url(#SVGID_20_);}
	.st28{clip-path:url(#SVGID_23_);}
	.st29{clip-path:url(#SVGID_25_);fill:url(#SVGID_26_);}
	.st30{opacity:0.5;clip-path:url(#SVGID_28_);}
	.st31{opacity:0.6;clip-path:url(#SVGID_28_);}
	.st32{clip-path:url(#SVGID_32_);}
	.st33{clip-path:url(#SVGID_34_);}
	.st34{clip-path:url(#SVGID_28_);fill:#F6E040;}
	.st35{opacity:0.4;clip-path:url(#SVGID_28_);}
	.st36{clip-path:url(#SVGID_36_);}
	.st37{filter:url(#Adobe_OpacityMaskFilter_2_);}
	.st38{clip-path:url(#SVGID_38_);}
	.st39{clip-path:url(#SVGID_41_);fill:url(#SVGID_42_);}
	.st40{clip-path:url(#SVGID_38_);mask:url(#SVGID_39_);}
	.st41{clip-path:url(#SVGID_44_);}
	.st42{clip-path:url(#SVGID_46_);fill:url(#SVGID_47_);}
	.st43{clip-path:url(#SVGID_49_);}
	.st44{filter:url(#Adobe_OpacityMaskFilter_3_);}
	.st45{clip-path:url(#SVGID_51_);}
	.st46{clip-path:url(#SVGID_51_);fill:url(#SVGID_53_);}
	.st47{clip-path:url(#SVGID_51_);mask:url(#SVGID_52_);}
	.st48{clip-path:url(#SVGID_55_);}
	.st49{clip-path:url(#SVGID_57_);fill:url(#SVGID_58_);}
	.st50{filter:url(#Adobe_OpacityMaskFilter_4_);}
	.st51{clip-path:url(#SVGID_60_);}
	.st52{clip-path:url(#SVGID_60_);fill:url(#SVGID_62_);}
	.st53{clip-path:url(#SVGID_60_);mask:url(#SVGID_61_);}
	.st54{clip-path:url(#SVGID_64_);}
	.st55{clip-path:url(#SVGID_66_);fill:url(#SVGID_67_);}
	.st56{clip-path:url(#SVGID_69_);fill:#EAC042;}
	.st57{clip-path:url(#SVGID_69_);fill:#D88F38;}
	.st58{clip-path:url(#SVGID_69_);}
	.st59{clip-path:url(#SVGID_69_);fill:#F4E264;}
	.st60{clip-path:url(#SVGID_69_);fill:#C5473C;}
</style>
<g class="st0">
	<g>
		<defs>
			<rect id="SVGID_1_" x="0.2" y="-0.2" width="284.5" height="284"/>
		</defs>
		<clipPath id="SVGID_2_">
			<use xlink:href="#SVGID_1_"  style="overflow:visible;"/>
		</clipPath>
		<g class="st1">
			<defs>
				<rect id="SVGID_3_" x="0.2" y="-0.2" width="284.5" height="284"/>
			</defs>
			<clipPath id="SVGID_4_">
				<use xlink:href="#SVGID_3_"  style="overflow:visible;"/>
			</clipPath>
			<g class="st2">
				<defs>
					<rect id="SVGID_5_" x="0.2" y="-0.2" width="284.5" height="284"/>
				</defs>
				<clipPath id="SVGID_6_">
					<use xlink:href="#SVGID_5_"  style="overflow:visible;"/>
				</clipPath>
				<path class="st3" d="M103.6,85.2c5.1-2.4,25,14.5,25,14.5l3.3-5.3c-6.5-9-24.5-17.7-28.7-19.7C102.6,74.4,103.6,85.2,103.6,85.2
					"/>
				<path class="st3" d="M68.9,86.5c-4.6-2-18.6,16.3-18.6,16.3l-3.5-4.9c4.1-9.4,17.7-19.4,21-21.7C68.1,75.9,68.9,86.5,68.9,86.5"
					/>
				<path class="st4" d="M129.1,110.1c0,0-10.6,10.3-60.3,10.1l-4.8-4.5c0,0,57.5,0,69.1-16.9L129.1,110.1z"/>
				<path class="st3" d="M68.6,190.1c0,0.2,0,0.4,0,0.6c0,0.2,0,0.3,0.1,0.4c0,0.1,0.1,0.2,0.1,0.3c0.1,0.1,0.2,0.1,0.3,0.2
					c0.1,0.1,0.3,0.1,0.4,0.1v0.6H65v-0.6c0.2-0.1,0.4-0.1,0.5-0.2c0.1-0.1,0.2-0.2,0.3-0.3c0.1-0.1,0.1-0.3,0.1-0.5
					c0-0.2,0-0.4,0-0.7v-7.6c0-0.3,0-0.5,0-0.7c0-0.2-0.1-0.3-0.1-0.4c-0.1-0.1-0.2-0.2-0.3-0.3c-0.1-0.1-0.3-0.1-0.5-0.2v-0.6h4.5
					v0.6c-0.2,0.1-0.4,0.1-0.5,0.2c-0.1,0.1-0.2,0.2-0.3,0.3c-0.1,0.1-0.1,0.2-0.1,0.4c0,0.2,0,0.4,0,0.7V190.1z"/>
				<path class="st3" d="M80.5,192.3h-4.2v-0.6c0.3-0.1,0.4-0.2,0.5-0.3c0.1-0.1,0.2-0.3,0.2-0.5c0-0.2,0.1-0.6,0.1-1.2v-2.3
					c0-0.4,0-0.8,0-1c0-0.3,0-0.5-0.1-0.6c0-0.2-0.1-0.3-0.2-0.4c-0.1-0.1-0.1-0.2-0.2-0.3c-0.1-0.1-0.2-0.1-0.3-0.2
					c-0.1,0-0.2-0.1-0.4-0.1c-0.2,0-0.4,0.1-0.7,0.2c-0.2,0.1-0.4,0.3-0.6,0.6c-0.2,0.2-0.2,0.5-0.2,0.8v3.4c0,0.6,0,0.9,0.1,1.2
					c0,0.2,0.1,0.4,0.2,0.5c0.1,0.1,0.3,0.2,0.6,0.3v0.6h-4.2v-0.6c0.3-0.1,0.5-0.2,0.6-0.3c0.1-0.1,0.2-0.3,0.2-0.5
					c0-0.2,0.1-0.6,0.1-1.1v-3.6c0-0.4,0-0.8,0-1c0-0.2,0-0.4-0.1-0.5c-0.1-0.1-0.1-0.2-0.2-0.3c-0.1-0.1-0.3-0.1-0.6-0.2v-0.6
					l2.4-0.1h1.1l-0.1,1.3l0.1,0c0.4-0.3,0.7-0.6,0.9-0.8c0.3-0.2,0.6-0.3,0.9-0.4c0.3-0.1,0.6-0.2,0.9-0.2c0.5,0,0.9,0.1,1.2,0.2
					c0.3,0.1,0.6,0.3,0.8,0.6c0.2,0.3,0.3,0.6,0.4,1c0.1,0.4,0.1,0.8,0.1,1.3v3.2c0,0.3,0,0.5,0,0.7c0,0.2,0,0.4,0.1,0.5
					c0,0.1,0.1,0.2,0.1,0.3c0.1,0.1,0.1,0.2,0.3,0.2c0.1,0.1,0.2,0.1,0.4,0.1V192.3z"/>
				<path class="st3" d="M90.1,189.8c0,0.4,0,0.8,0,1c0,0.2,0,0.4,0.1,0.5c0.1,0.1,0.1,0.2,0.3,0.3c0.1,0.1,0.3,0.1,0.6,0.2v0.6
					l-2.3,0.1h-1l0.1-1.3l-0.1,0c-0.4,0.4-0.9,0.8-1.3,1c-0.5,0.2-0.9,0.3-1.3,0.3c-1,0-1.8-0.4-2.3-1.1c-0.5-0.7-0.8-1.8-0.8-3.3
					c0-1,0.2-1.8,0.5-2.5c0.3-0.7,0.8-1.2,1.4-1.5c0.6-0.3,1.4-0.5,2.3-0.5c0.3,0,0.5,0,0.7,0c0.2,0,0.5,0.1,0.9,0.2V183
					c0-0.6,0-1.1,0-1.3c0-0.3-0.1-0.5-0.1-0.6c-0.1-0.1-0.1-0.2-0.2-0.3c-0.1-0.1-0.3-0.1-0.6-0.2v-0.6l2.4-0.1h1.1V189.8z
					 M87.6,186.5c0-0.7-0.1-1.2-0.4-1.6c-0.2-0.3-0.6-0.5-1.1-0.5c-0.4,0-0.7,0.1-0.9,0.4c-0.3,0.3-0.4,0.6-0.6,1.1
					c-0.1,0.5-0.2,1.1-0.2,1.7c0,1.2,0.1,2,0.4,2.6c0.2,0.6,0.6,0.8,1.2,0.8c0.2,0,0.5-0.1,0.7-0.2c0.2-0.1,0.5-0.3,0.6-0.6
					c0.2-0.3,0.3-0.6,0.3-0.9V186.5z"/>
				<path class="st3" d="M100.1,190.7c-0.6,0.6-1.2,1.1-1.7,1.3c-0.6,0.3-1.2,0.4-2,0.4c-1.3,0-2.3-0.4-3-1.1c-0.7-0.7-1-1.8-1-3.3
					c0-0.9,0.2-1.8,0.5-2.4c0.3-0.7,0.8-1.2,1.5-1.6c0.6-0.3,1.4-0.5,2.2-0.5c0.5,0,1,0.1,1.4,0.2c0.4,0.1,0.7,0.3,1,0.5
					c0.3,0.2,0.5,0.5,0.7,0.8c0.2,0.4,0.4,0.8,0.5,1.3c0.1,0.5,0.2,1.1,0.2,1.8h-5.5c0,1.1,0.2,1.8,0.6,2.3c0.4,0.5,0.9,0.7,1.7,0.7
					c0.4,0,0.8-0.1,1.2-0.3c0.3-0.2,0.7-0.5,1.1-0.9L100.1,190.7z M97.8,187.1c0-0.9-0.1-1.6-0.3-2c-0.2-0.4-0.5-0.7-1-0.7
					c-0.4,0-0.8,0.2-1.1,0.7c-0.3,0.5-0.4,1.1-0.5,2H97.8z"/>
				<path class="st3" d="M106.2,187.5l2,2.9c0.2,0.3,0.4,0.5,0.5,0.7c0.1,0.2,0.3,0.3,0.4,0.4c0.1,0.1,0.3,0.2,0.5,0.2v0.6h-4.2
					v-0.6c0.4,0,0.5-0.2,0.5-0.5c0-0.1,0-0.1,0-0.2c0-0.1,0-0.1-0.1-0.2c0-0.1-0.1-0.2-0.2-0.3l-1-1.4l-0.9,1.1
					c-0.2,0.2-0.3,0.4-0.4,0.5c0,0.1-0.1,0.2-0.1,0.4c0,0.1,0.1,0.3,0.2,0.4c0.1,0.1,0.3,0.2,0.5,0.2v0.6h-3.3v-0.6
					c0.2-0.1,0.5-0.2,0.7-0.4c0.2-0.2,0.6-0.5,0.9-0.9l1.8-2.1l-2-2.9c-0.1-0.2-0.2-0.3-0.3-0.5c-0.1-0.1-0.2-0.2-0.3-0.3
					c-0.1-0.1-0.2-0.2-0.3-0.3c-0.1-0.1-0.2-0.1-0.2-0.1c-0.1,0-0.1,0-0.2-0.1v-0.6h4.2v0.6c-0.4,0.1-0.5,0.2-0.5,0.5
					c0,0.1,0,0.2,0.1,0.3c0.1,0.1,0.1,0.2,0.3,0.4l0.9,1.3l0.9-1.1c0.1-0.2,0.2-0.3,0.3-0.4c0.1-0.1,0.1-0.3,0.1-0.4
					c0-0.2-0.1-0.3-0.2-0.4c-0.1-0.1-0.3-0.2-0.5-0.2v-0.6h3.3v0.6c-0.3,0.1-0.5,0.2-0.7,0.4c-0.2,0.2-0.5,0.5-0.9,1L106.2,187.5z"
					/>
				<path class="st3" d="M121.7,192.2l0.5,0.7c0.1,0.2,0.3,0.4,0.4,0.5c0.1,0.2,0.3,0.3,0.4,0.4s0.3,0.2,0.4,0.2
					c0.1,0,0.3,0.1,0.4,0.1c0.2,0,0.3,0,0.5,0c0.1,0,0.3-0.1,0.4-0.2c0.1-0.1,0.3-0.2,0.5-0.4l0.6,0.8c-0.4,0.4-0.7,0.7-1,0.8
					c-0.3,0.2-0.6,0.3-0.9,0.4c-0.3,0.1-0.6,0.1-1,0.1c-0.4,0-0.8,0-1.1-0.1c-0.3-0.1-0.6-0.3-0.9-0.5c-0.3-0.2-0.6-0.6-0.9-1
					l-1-1.6c-0.9-0.1-1.7-0.4-2.4-0.8c-0.6-0.4-1.1-1.1-1.5-1.9c-0.3-0.9-0.5-1.9-0.5-3.2c0-1.3,0.2-2.4,0.6-3.4
					c0.4-0.9,1-1.6,1.8-2.1c0.8-0.5,1.7-0.7,2.9-0.7c1.7,0,3,0.5,3.9,1.5c0.9,1,1.3,2.5,1.3,4.5c0,1.6-0.3,2.9-0.9,3.9
					C123.6,191.2,122.8,191.8,121.7,192.2 M117.4,186.2c0,1.8,0.2,3.1,0.6,3.9c0.4,0.9,1.1,1.3,1.9,1.3c0.4,0,0.8-0.1,1.1-0.4
					c0.3-0.2,0.6-0.6,0.8-1c0.2-0.4,0.3-0.9,0.4-1.5c0.1-0.6,0.1-1.2,0.1-2c0-1.2-0.1-2.1-0.3-2.9c-0.2-0.8-0.5-1.4-0.8-1.8
					c-0.4-0.4-0.8-0.6-1.4-0.6c-0.8,0-1.5,0.4-1.9,1.2C117.6,183.3,117.4,184.5,117.4,186.2"/>
				<path class="st3" d="M126.5,183.7h3.3v4.9c0,0.6,0,1,0.1,1.3c0,0.3,0.1,0.6,0.2,0.7c0.1,0.2,0.2,0.3,0.4,0.4
					c0.1,0.1,0.3,0.1,0.5,0.1c0.2,0,0.4-0.1,0.7-0.2c0.2-0.1,0.4-0.3,0.6-0.6c0.2-0.2,0.2-0.5,0.2-0.8v-3.4c0-0.4,0-0.7,0-1
					c0-0.2,0-0.4-0.1-0.5c-0.1-0.1-0.1-0.2-0.2-0.3c-0.1-0.1-0.3-0.2-0.5-0.2v-0.6h3.4v6.1c0,0.4,0,0.8,0,1c0,0.2,0,0.4,0.1,0.5
					c0.1,0.1,0.1,0.2,0.3,0.3c0.1,0.1,0.3,0.2,0.6,0.2v0.6l-2.3,0.1h-1l0.1-1.3l-0.1,0c-0.5,0.5-1,0.8-1.4,1
					c-0.4,0.2-0.8,0.3-1.3,0.3c-0.6,0-1.1-0.1-1.5-0.3c-0.4-0.2-0.6-0.6-0.8-1c-0.2-0.4-0.2-1-0.2-1.7v-3.2c0-0.3,0-0.6,0-0.8
					c0-0.2,0-0.3,0-0.4c0-0.1,0-0.2-0.1-0.3c0-0.1-0.1-0.2-0.1-0.2c-0.1-0.1-0.1-0.1-0.2-0.2c-0.1,0-0.2-0.1-0.4-0.1V183.7z"/>
				<path class="st3" d="M142.3,191.2l-0.1,0c-0.5,0.5-0.9,0.8-1.4,1c-0.4,0.2-0.9,0.3-1.4,0.3c-0.5,0-0.9-0.1-1.3-0.3
					c-0.4-0.2-0.6-0.4-0.8-0.8c-0.2-0.3-0.3-0.7-0.3-1.1c0-0.9,0.4-1.5,1.2-2c0.8-0.5,2.1-0.8,3.8-0.9v-0.8c0-0.5-0.1-1-0.2-1.3
					c-0.1-0.3-0.3-0.5-0.5-0.6c-0.2-0.1-0.4-0.2-0.7-0.2c-0.3,0-0.5,0.1-0.7,0.1c-0.2,0.1-0.4,0.3-0.5,0.5c-0.2,0.3-0.3,0.6-0.3,1.1
					h-1.6v-1.6c0.5-0.2,1-0.4,1.3-0.6c0.3-0.1,0.7-0.2,1-0.3c0.3-0.1,0.7-0.1,0.9-0.2c0.3,0,0.5,0,0.8,0c0.7,0,1.3,0.1,1.7,0.3
					c0.4,0.2,0.7,0.5,0.9,0.9c0.2,0.4,0.3,1,0.3,1.7v3.4c0,0.4,0,0.7,0,0.9c0,0.2,0,0.4,0.1,0.5c0,0.1,0.1,0.2,0.1,0.2
					c0.1,0.1,0.1,0.1,0.2,0.1c0.1,0,0.2,0.1,0.5,0.1v0.6h-3.2L142.3,191.2z M142,188.2c-0.9,0-1.5,0.2-2,0.5
					c-0.4,0.3-0.6,0.8-0.6,1.4c0,0.4,0.1,0.6,0.3,0.8c0.2,0.2,0.5,0.3,0.8,0.3c0.3,0,0.5-0.1,0.7-0.2c0.2-0.1,0.4-0.3,0.6-0.6
					c0.1-0.2,0.2-0.5,0.2-0.8V188.2z"/>
				<path class="st3" d="M149.9,189.8c0,0.6,0,0.9,0.1,1.1c0,0.2,0.1,0.4,0.2,0.5c0.1,0.1,0.3,0.2,0.6,0.3v0.6h-4.2v-0.6
					c0.2,0,0.3-0.1,0.4-0.1c0.1-0.1,0.2-0.1,0.2-0.2c0.1-0.1,0.1-0.2,0.1-0.3c0-0.1,0.1-0.3,0.1-0.5c0-0.2,0-0.5,0-0.9V183
					c0-0.5,0-0.9,0-1.1c0-0.2,0-0.4-0.1-0.6c0-0.2-0.1-0.3-0.1-0.4c-0.1-0.1-0.1-0.2-0.3-0.2c-0.1-0.1-0.3-0.1-0.5-0.2v-0.6l2.4-0.1
					h1.1V189.8z"/>
				<path class="st3" d="M152.1,191.8c0.3-0.1,0.5-0.2,0.6-0.3c0.1-0.1,0.2-0.3,0.2-0.5c0-0.2,0.1-0.6,0.1-1.1v-4.1
					c0-0.3,0-0.5,0-0.7c0-0.2-0.1-0.3-0.1-0.4c-0.1-0.1-0.2-0.2-0.3-0.2c-0.1-0.1-0.3-0.1-0.5-0.1v-0.6l2.4-0.1h1.1v6.2
					c0,0.3,0,0.6,0,0.8c0,0.2,0,0.3,0,0.4c0,0.1,0,0.2,0.1,0.3c0,0.1,0.1,0.1,0.1,0.2c0.1,0.1,0.1,0.1,0.2,0.2
					c0.1,0.1,0.2,0.1,0.4,0.1v0.6h-4.2V191.8z M155.4,182.3H153v-2.1h2.4V182.3z"/>
				<path class="st3" d="M163.5,191.3c-0.5,0.4-1,0.7-1.4,0.9c-0.4,0.2-0.8,0.3-1.3,0.3c-0.9,0-1.5-0.2-1.9-0.7
					c-0.4-0.5-0.6-1.2-0.6-2.1v-4.9h-1.1v-0.6c0.4-0.1,0.6-0.2,0.8-0.3c0.2-0.1,0.3-0.3,0.4-0.5c0.1-0.2,0.2-0.4,0.2-0.8
					c0.1-0.3,0.1-0.7,0.1-1.2h2.1v2.2h2.5v1.1h-2.5v3.9c0,0.7,0,1.1,0.1,1.5c0.1,0.3,0.2,0.5,0.3,0.7c0.1,0.1,0.3,0.2,0.5,0.2
					c0.2,0,0.3,0,0.4,0c0.1,0,0.3-0.1,0.4-0.2c0.1-0.1,0.3-0.2,0.4-0.3L163.5,191.3z"/>
				<path class="st3" d="M168.4,192.7c-0.4,0.8-0.7,1.5-1.1,2c-0.3,0.5-0.7,0.8-1.1,1.1c-0.4,0.2-0.9,0.4-1.4,0.4
					c-0.4,0-0.8-0.1-1.2-0.2v-2h1c0.1,0.3,0.2,0.5,0.3,0.6c0.1,0.1,0.3,0.2,0.5,0.2c0.2,0,0.4-0.1,0.6-0.2c0.2-0.1,0.4-0.4,0.6-0.7
					c0.2-0.3,0.5-0.8,0.8-1.5h-0.5l-2.2-6.6c-0.2-0.5-0.3-0.8-0.4-0.9c-0.1-0.2-0.2-0.3-0.3-0.4c-0.1-0.1-0.3-0.2-0.4-0.2v-0.6h4.3
					v0.6c-0.3,0.1-0.5,0.1-0.6,0.2c-0.1,0.1-0.2,0.3-0.2,0.5c0,0.3,0.1,0.7,0.2,1.1l1.2,3.8l1.4-3.3c0.1-0.3,0.2-0.5,0.3-0.7
					c0.1-0.2,0.1-0.4,0.1-0.6c0-0.2-0.1-0.4-0.2-0.6c-0.1-0.2-0.3-0.3-0.6-0.3v-0.6h3.3v0.6c-0.2,0-0.3,0.1-0.4,0.2
					c-0.1,0.1-0.2,0.2-0.3,0.3c-0.1,0.1-0.2,0.3-0.3,0.5c-0.1,0.2-0.3,0.6-0.5,1.1L168.4,192.7z"/>
				<path class="st3" d="M99.6,146.7c0,2,0.1,3.9,0.2,5.6c0.1,1.7,0.3,3.1,0.7,4.2c0.3,1.1,0.8,2,1.5,2.8c0.7,0.7,1.5,1.4,2.7,1.9
					c1.1,0.5,2.5,1,4.2,1.4v5.7H64.2v-5.7c2.1-0.6,3.7-1.2,5-1.9c1.2-0.7,2.1-1.6,2.7-2.8c0.6-1.2,1-2.7,1.1-4.5
					c0.2-1.8,0.3-4.1,0.3-6.9V72.3c0-2.8-0.1-5-0.2-6.8c-0.1-1.8-0.5-3.3-1.1-4.4c-0.6-1.2-1.5-2.1-2.7-2.8c-1.2-0.7-2.9-1.3-5-1.9
					v-5.7h44.5v5.7c-2.3,0.6-4,1.3-5.1,2c-1.1,0.7-1.9,1.6-2.5,2.6c-0.6,1-1,2.4-1.2,4.1c-0.2,1.7-0.3,4.1-0.3,7.3V146.7z"/>
				<path class="st4" d="M197.6,167.6l5.4,7.5c1.4,1.9,2.7,3.6,3.9,5.1c1.2,1.4,2.5,2.7,3.9,3.7c1.4,1.1,2.7,1.8,4,2.2
					c1.3,0.4,2.6,0.7,4.1,0.7c1.8,0,3.3-0.2,4.6-0.5c1.3-0.3,2.6-0.9,4-1.7c1.4-0.8,3-2,4.8-3.6l6.1,7.6c-3.9,3.7-7.3,6.5-10.3,8.5
					c-3,2-5.9,3.4-8.6,4.2c-2.8,0.8-6,1.2-9.7,1.2c-4,0-7.6-0.5-10.8-1.4c-3.2-0.9-6.3-2.6-9.3-5c-3-2.4-5.9-5.7-8.6-10l-10.3-16.2
					c-9.3-1-17.2-3.7-23.6-8.1c-6.4-4.4-11.3-10.9-14.8-19.5c-3.5-8.6-5.2-19.4-5.2-32.4c0-13.2,2.1-24.4,6.2-33.8
					c4.1-9.3,10.2-16.4,18.2-21.3c8-4.9,17.5-7.3,28.6-7.3c17.2,0,30.2,5,38.8,15.1c8.6,10,13,25,13,44.8c0,16.1-2.9,29.2-8.6,39.4
					C217.5,157,208.9,163.9,197.6,167.6 M154.5,107.6c0,17.7,2.1,30.9,6.3,39.5c4.2,8.6,10.6,13,19.1,13c4.4,0,8.2-1.2,11.3-3.6
					c3.1-2.4,5.6-5.8,7.6-10.2c1.9-4.4,3.3-9.5,4.1-15.5c0.8-6,1.3-12.5,1.3-19.7c0-11.7-0.9-21.4-2.7-29.3
					c-1.8-7.9-4.6-13.8-8.2-17.8c-3.7-4-8.3-6-14-6c-8.4,0-14.6,4.1-18.6,12.2C156.5,78.1,154.5,90.6,154.5,107.6"/>
				<path class="st5" d="M64.1,112l0.3,10.7c2.3,0,8.4-0.1,18.2-0.3l0-10.8C70.5,111.8,64.3,112,64.1,112 M65.1,127.1
					c-0.2,0-0.5,0-0.7,0c-0.1,5.5-0.4,10.1-0.9,13.8c5.9,1.3,12.2,1.9,18.9,1.7c0.2-3.6,0.3-8.9,0.2-15.9c-1.4,0-3,0-4.8,0.1
					C70,127,65.7,127.1,65.1,127.1 M69.5,91.2c-0.1-1.7-0.1-4.4-0.3-8c-0.3-0.1-0.6-0.1-0.9-0.2c-0.1,0-0.8-0.3-2.3-0.9
					c-1.3,4.5-2.4,9.8-3.4,16.1c0.6,2.1,1,5.2,1.3,9.3c1.5,0,3.3-0.1,5.5-0.1C69.5,99.8,69.6,94.3,69.5,91.2 M73.2,83.9
					c0.1,3.3,0.2,5.8,0.2,7.3c0.1,3.1,0.1,8.6-0.1,16.3c4.8-0.1,7.9-0.2,9.2-0.1c0-7,0.1-13.1,0.3-18.2c-2.1-1.5-3.8-3.2-5-4.9
					C76.2,84.1,74.6,84,73.2,83.9 M108.6,122.5l0.3-10.7c-0.2,0-6.3-0.1-18.4-0.4l0,10.8C100.2,122.4,106.2,122.5,108.6,122.5
					 M95.1,126.6c-1.8-0.1-3.4-0.1-4.8-0.1c-0.1,7-0.1,12.3-0.1,16c6.9,0.2,13.3-0.4,19.2-1.7c-0.5-3.7-0.8-8.3-0.9-13.8
					c-0.2,0-0.4,0-0.7,0C107.2,126.9,103,126.8,95.1,126.6 M95.3,83.6c-1.2,1.9-2.9,3.6-5.2,5.3c0.2,5.1,0.2,11.2,0.3,18.2
					c1.3-0.1,4.4,0,9.2,0.1c-0.1-7.7-0.1-13.2-0.1-16.3c0.1-1.6,0.1-4.3,0.2-7.9C98.3,83.3,96.8,83.5,95.3,83.6 M106.9,81.7
					c-1,0.2-2.1,0.4-3.1,0.6c-0.1,4-0.2,6.9-0.3,8.7c-0.1,3.1,0,8.6,0.1,16.3c2.2,0,4,0.1,5.5,0.1c0.3-4.1,0.7-7.2,1.3-9.3
					C109.3,91.7,108.2,86.2,106.9,81.7"/>
				<path class="st6" d="M64.4,122.7v4.4c0.2,0,0.4,0,0.7,0c0.6,0,4.9-0.1,12.8-0.3c1.8-0.1,3.4-0.1,4.8-0.1c0-1.4,0-2.8,0-4.3
					C72.8,122.6,66.7,122.7,64.4,122.7 M73.4,107.4l-3.9,0.1c-2.2,0-4,0.1-5.5,0.1c0.1,1.3,0.2,2.8,0.3,4.4c0.2,0,6.3-0.1,18.4-0.4
					v-4.3C81.3,107.2,78.2,107.3,73.4,107.4 M73.4,91.1c-0.1-1.5-0.1-4-0.2-7.3c-1.5-0.2-2.8-0.4-4-0.6c0.1,3.6,0.2,6.3,0.3,8
					c0.1,3.1,0,8.6-0.1,16.3l3.9-0.1C73.5,99.7,73.5,94.3,73.4,91.1 M90.3,126.5c1.4,0,3,0,4.8,0.1c7.9,0.2,12.1,0.3,12.8,0.3
					c0.3,0,0.5,0,0.7,0v-4.4c-2.3,0-8.4-0.1-18.2-0.3C90.3,123.7,90.3,125.1,90.3,126.5 M103.6,107.3l-3.9-0.1
					c-4.8-0.2-7.9-0.2-9.2-0.2v4.3c12.1,0.2,18.3,0.4,18.4,0.4c0.1-1.6,0.2-3,0.3-4.4C107.6,107.4,105.8,107.4,103.6,107.3
					 M102.7,82.5c-1,0.2-1.9,0.3-2.9,0.5c-0.1,3.7-0.1,6.3-0.2,7.9c-0.1,3.1-0.1,8.6,0.1,16.3l3.9,0.1c-0.1-7.7-0.1-13.2-0.1-16.3
					c0.1-1.8,0.2-4.7,0.3-8.7C103.4,82.4,103,82.5,102.7,82.5"/>
				<path class="st7" d="M69,75.3c-0.3,0.2-0.6,0.4-0.9,0.6c-0.7,1.8-1.5,4-2.1,6.3c1.5,0.6,2.2,0.8,2.3,0.9
					c0.3,0.1,0.6,0.2,0.9,0.2C69.2,80.9,69.1,78.3,69,75.3 M74.2,73.5c-0.4,0.1-0.8,0.2-1.2,0.2c0.1,4,0.1,7.4,0.2,10.1
					c1.4,0.1,3,0.3,4.7,0.3c-0.2-0.3-0.4-0.5-0.5-0.8C76.2,81.3,75.1,78.1,74.2,73.5 M106.9,81.7c-0.7-2.3-1.3-4.3-2-6.1
					c-0.3-0.2-0.6-0.4-0.9-0.6c-0.1,2.7-0.1,5.1-0.2,7.3C104.8,82.1,105.8,81.9,106.9,81.7 M100,73.5c-0.4-0.1-0.8-0.2-1.2-0.2
					c-0.9,4.5-2,7.8-3.2,9.9c-0.1,0.2-0.2,0.3-0.3,0.4c1.5-0.2,3-0.4,4.4-0.6C99.8,80.4,99.9,77.2,100,73.5"/>
				<path class="st8" d="M73,73.7c-1.4,0.3-2.7,0.8-3.8,1.5c0,0-0.1,0-0.1,0.1c0.1,3,0.1,5.7,0.2,8c1.2,0.3,2.5,0.5,4,0.6
					C73.2,81.1,73.1,77.7,73,73.7 M99.7,83c1-0.1,2-0.3,2.9-0.5c0.4-0.1,0.7-0.1,1.1-0.2c0.1-2.1,0.1-4.5,0.2-7.3
					c0,0-0.1-0.1-0.2-0.1c-1.1-0.6-2.4-1.1-3.8-1.5C99.9,77.2,99.8,80.4,99.7,83"/>
				<path class="st3" d="M99.9,73.9l-1.2-0.2l0.4-0.3c-0.3,0.9-0.5,1.8-0.7,2.6c-0.1,0.4-0.3,0.9-0.4,1.3l-0.4,1.3
					c-0.2,0.9-0.6,1.7-0.9,2.6c-0.1,0.4-0.4,0.8-0.5,1.3l-0.3,0.6c-0.1,0.2-0.2,0.4-0.3,0.6c-0.1,0.2-0.3,0.3-0.5,0.2
					c-0.2-0.1-0.3-0.3-0.2-0.5c0,0,0,0,0-0.1l0,0c0.1-0.2,0.3-0.4,0.4-0.6l0.3-0.6c0.2-0.4,0.4-0.8,0.6-1.2l0.5-1.3
					c0.2-0.4,0.3-0.8,0.4-1.3l0.4-1.3c0.1-0.4,0.2-0.9,0.3-1.3c0.2-0.9,0.4-1.8,0.5-2.7c0-0.2,0.2-0.3,0.4-0.3l0,0l0,0l1.2,0.2
					c0.2,0,0.3,0.2,0.3,0.4C100.3,73.8,100.1,74,99.9,73.9"/>
				<path class="st3" d="M99.4,83c0.1-0.8,0.2-1.6,0.2-2.4c0-0.8,0-1.6,0-2.4c0-1.6,0-3.2,0-4.8c0-0.2,0.2-0.4,0.4-0.4
					c0,0,0.1,0,0.1,0l0,0c0.5,0.1,0.9,0.1,1.4,0.2c0.2,0.1,0.4,0.1,0.7,0.2c0.2,0.1,0.4,0.2,0.6,0.3c0.4,0.2,0.8,0.4,1.2,0.6
					l0.3,0.2c0.1,0.1,0.2,0.1,0.3,0.2c0.2,0.1,0.4,0.3,0.5,0.4l0,0c0.1,0,0.1,0.1,0.1,0.2l0,0c0.4,0.9,0.8,1.8,1.1,2.7
					c0.3,0.9,0.6,1.9,0.9,2.8c0.1,0.2,0.1,0.4,0.2,0.7l0.2,0.7l0.3,1.4l0.7,2.8l0.3,1.4c0.1,0.5,0.2,0.9,0.3,1.4l0.5,2.9l1,5.7
					c0,0,0,0.1,0,0.1l0,0c-0.2,0.9-0.4,1.7-0.5,2.6l-0.2,1.3l-0.2,1.3c-0.1,0.9-0.2,1.8-0.3,2.6c-0.1,0.9-0.2,1.8-0.2,2.7l-0.2,2.7
					c-0.1,0.9-0.1,1.8-0.1,2.7l-0.1,5.3l-0.1,2.7c0,0.9,0,1.8,0,2.7c0,0.9,0,1.8,0,2.7l0.1,2.7l0.1,2.7c0,0.9,0.1,1.8,0.2,2.7
					l0.5,5.3v0c0,0.2-0.1,0.4-0.3,0.4c-0.8,0.2-1.6,0.3-2.4,0.5l-1.2,0.2c-0.4,0.1-0.8,0.2-1.2,0.2l-2.4,0.3l-1.2,0.1
					c-0.4,0-0.8,0.1-1.2,0.1l-2.4,0.2l-1.2,0.1c-0.4,0-0.8,0.1-1.2,0.1c-1.6,0-3.2,0-4.8,0.1h0c-0.2,0-0.4-0.2-0.3-0.4v0
					c0.1-2.2,0.1-4.5,0.1-6.7c0-2.2,0-4.5,0-6.7l-0.1-6.7l-0.1-6.7l-0.1-6.7c0-1.1,0-2.2,0-3.3l0-3.3c0-2.2,0-4.5,0-6.7
					c0-2.2,0-4.5,0.1-6.7v0l0.2-0.3c0.5-0.3,1-0.7,1.5-1.1c0.3-0.2,0.5-0.4,0.7-0.6l0.7-0.6c0.2-0.2,0.4-0.4,0.6-0.7
					c0.2-0.2,0.4-0.5,0.6-0.7c0.2-0.2,0.3-0.5,0.5-0.8c0.2-0.3,0.3-0.5,0.4-0.8l0,0c0.1-0.2,0.3-0.3,0.5-0.2
					c0.2,0.1,0.3,0.3,0.2,0.5c0,0,0,0.1-0.1,0.1c-0.2,0.2-0.4,0.5-0.6,0.7c-0.2,0.2-0.4,0.5-0.6,0.7c-0.2,0.2-0.4,0.5-0.6,0.7
					c-0.2,0.2-0.4,0.5-0.6,0.7l-0.7,0.6c-0.2,0.2-0.4,0.5-0.7,0.7c-0.5,0.4-1,0.8-1.4,1.2l0.2-0.3c0.1,2.2,0.2,4.5,0.2,6.7
					c0.1,2.2,0.1,4.5,0.2,6.7l0.1,3.3c0,1.1,0,2.2,0,3.4c0,2.2,0,4.5-0.1,6.7l-0.2,6.7c-0.1,2.2-0.1,4.5-0.2,6.7c0,2.2,0,4.5,0,6.7
					s0,4.5,0.1,6.7l-0.4-0.4c1.6,0,3.2,0,4.8,0c0.4,0,0.8,0,1.2-0.1l1.2-0.1l2.4-0.1c0.4,0,0.8-0.1,1.2-0.1l1.2-0.2l2.4-0.3
					c0.4,0,0.8-0.2,1.2-0.2l1.2-0.2c0.8-0.1,1.6-0.3,2.4-0.4l-0.3,0.4l-0.5-5.4c-0.1-0.9-0.1-1.8-0.1-2.7l-0.1-2.7l-0.1-2.7
					c0-0.9,0-1.8,0-2.7c0-0.9,0-1.8,0-2.7l0.1-2.7l0.1-5.3c0-0.9,0-1.8,0.1-2.7l0.2-2.7c0-0.9,0.1-1.8,0.2-2.7
					c0.1-0.9,0.1-1.8,0.3-2.7l0.2-1.3l0.2-1.3c0.1-0.9,0.4-1.8,0.6-2.7l0,0.2v0l-1.1-5.7l-0.5-2.8c-0.1-0.5-0.2-0.9-0.3-1.4
					l-0.3-1.4L107,84l-0.4-1.4l-0.2-0.7c-0.1-0.2-0.1-0.4-0.2-0.7l-0.9-2.7c-0.3-0.9-0.6-1.8-0.9-2.7l0.1,0.2l0,0
					c-0.2-0.1-0.4-0.2-0.6-0.3c-0.1-0.1-0.2-0.1-0.3-0.2l-0.3-0.1c-0.2-0.1-0.4-0.2-0.6-0.3c-0.2-0.1-0.4-0.2-0.6-0.3
					c-0.4-0.2-0.8-0.3-1.2-0.5c-0.4-0.2-0.8-0.3-1.2-0.5l0.5-0.4c-0.1,1.6-0.2,3.2-0.2,4.7c0,0.8-0.1,1.6-0.1,2.4
					c0,0.8,0,1.6,0.1,2.4c0,0.2-0.1,0.4-0.3,0.4C99.6,83.5,99.4,83.3,99.4,83C99.4,83.1,99.4,83.1,99.4,83"/>
				<path class="st9" d="M104.3,75.1c0,0,0,0.5-0.1,1.1c0,0.7-0.1,1.6-0.1,2.5c0,0.9-0.1,1.8-0.1,2.5c0,0.7,0,1.1,0,1.1
					c0,0.2-0.1,0.4-0.4,0.4c-0.2,0-0.4-0.1-0.4-0.4c0,0,0,0,0-0.1c0,0,0.1-0.5,0.1-1.1c0-0.7,0.1-1.6,0.1-2.5c0-0.9,0-1.8,0-2.5
					c0-0.7,0-1.1,0-1.1c0-0.2,0.2-0.4,0.4-0.4C104.1,74.7,104.3,74.9,104.3,75.1L104.3,75.1"/>
				<path class="st3" d="M100.1,83.1c-0.1,1-0.2,2-0.3,3c-0.1,1-0.1,2-0.1,3l0,1.5c0,0.5,0,1,0,1.5l0,3l0.1,6.1c0,2,0.1,4,0.2,6
					l-0.4-0.4l3.9,0.1l-0.4,0.4l0.1-6.2l0-6.2v-3.1c0-1,0.1-2.1,0.1-3.1c0-1,0-2.1,0.1-3.1c0-1,0-2.1,0-3.1c0-0.2,0.1-0.4,0.4-0.4
					c0.2,0,0.4,0.2,0.4,0.4v0.1c-0.1,1-0.2,2.1-0.2,3.1c-0.1,1-0.1,2.1-0.1,3.1c0,1-0.1,2.1-0.1,3.1l0,3.1l0.1,6.2l0.1,6.2
					c0,0.2-0.2,0.4-0.4,0.4h0l-3.9-0.1h0c-0.2,0-0.4-0.2-0.4-0.4c0-2,0.1-4,0.1-6l0-6v-3c0-0.5,0-1,0-1.5l0-1.5c0-1,0.1-2,0.1-3
					c0-1,0-2-0.1-3c0-0.2,0.1-0.4,0.3-0.4C99.9,82.6,100.1,82.8,100.1,83.1C100.1,83,100.1,83,100.1,83.1"/>
				<path class="st10" d="M73,73.7c-1.4,0.3-2.7,0.8-3.8,1.5c0,0-0.1,0-0.1,0.1c0.1,3,0.1,5.7,0.2,8"/>
				<path class="st3" d="M72.8,83.9c0-1.7,0-3.4,0-5.1c-0.1-1.7-0.1-3.4-0.2-5.1c0-0.2,0.1-0.3,0.3-0.4l0,0l1.2-0.2
					c0.2,0,0.4,0.1,0.4,0.3v0l0.4,2.2c0.1,0.8,0.3,1.5,0.5,2.2l0.3,1.1c0.1,0.4,0.2,0.7,0.4,1.1l0.4,1.1c0.1,0.4,0.3,0.7,0.5,1
					l0.5,1c0.2,0.3,0.4,0.7,0.6,0.9l0.7,0.9c0.2,0.3,0.5,0.6,0.8,0.8c0.3,0.3,0.5,0.6,0.8,0.8l0.9,0.7c0.3,0.3,0.6,0.5,0.9,0.7
					l0.9,0.7c0.1,0.1,0.1,0.2,0.2,0.3v0c0,4.5,0,8.9,0,13.4c0,2.2-0.1,4.4-0.1,6.7l0,6.7l-0.1,6.7l0,6.7l0,6.7
					c-0.1,2.2-0.1,4.5-0.2,6.7c0,0.2-0.2,0.3-0.3,0.3h0l-4.8,0c-0.4,0-0.8,0-1.2-0.1l-1.2-0.1l-2.4-0.2c-0.4,0-0.8-0.1-1.2-0.1
					l-1.2-0.1c-0.8-0.1-1.6-0.2-2.4-0.3c-0.4,0-0.8-0.1-1.2-0.2l-1.2-0.2c-0.8-0.1-1.6-0.2-2.4-0.4c-0.2,0-0.3-0.2-0.3-0.3l0-0.1
					l0.5-5.3c0.1-0.9,0.1-1.8,0.2-2.7l0.1-2.7l0.1-2.7c0-0.9,0-1.8,0-2.7c0-0.9,0-1.8,0-2.7l-0.1-2.7c0-1.8-0.1-3.6-0.1-5.3
					c0-0.9,0-1.8-0.1-2.7l-0.2-2.7c-0.1-0.9-0.1-1.8-0.2-2.7c-0.1-0.9-0.2-1.8-0.3-2.7l-0.2-1.3l-0.2-1.3c-0.1-0.9-0.4-1.7-0.6-2.6
					c0,0,0-0.1,0-0.1v0c0.3-1.9,0.6-3.8,0.9-5.7c0.2-1,0.3-1.9,0.5-2.9c0.1-0.5,0.2-0.9,0.3-1.4l0.3-1.4L65,84l0.4-1.4
					c0.1-0.5,0.3-1,0.4-1.4l0.4-1.4c0.2-0.5,0.3-0.9,0.5-1.4l1.1-2.7l0,0c0-0.1,0.1-0.1,0.1-0.2l0.9-0.6c0.2-0.1,0.4-0.1,0.5,0.1
					c0.1,0.2,0.1,0.4-0.1,0.5l0,0l-0.9,0.5l0.1-0.2l-0.9,2.7c-0.2,0.4-0.3,0.9-0.4,1.4l-0.4,1.4c-0.1,0.5-0.3,0.9-0.4,1.4l-0.3,1.4
					l-0.7,2.8l-0.4,1.4c-0.1,0.5-0.2,0.9-0.3,1.4c-0.2,0.9-0.4,1.9-0.6,2.8c-0.4,1.9-0.8,3.8-1.2,5.7l0-0.2c0.2,0.9,0.4,1.8,0.5,2.7
					l0.2,1.3l0.1,1.3c0.1,0.9,0.2,1.8,0.3,2.7c0.1,0.9,0.1,1.8,0.2,2.7l0.1,2.7c0,0.9,0,1.8,0.1,2.7c0,1.8,0.1,3.6,0.1,5.3l0.1,2.7
					c0,0.9,0,1.8,0,2.7c0,0.9,0,1.8,0,2.7l-0.1,2.7l-0.1,2.7c0,0.9,0,1.8-0.1,2.7l-0.4,5.4l-0.3-0.4c0.8,0.2,1.5,0.4,2.3,0.5
					l1.2,0.3c0.4,0.1,0.8,0.2,1.2,0.2c0.8,0.1,1.6,0.2,2.4,0.3l1.2,0.1c0.4,0,0.8,0.1,1.2,0.1l2.4,0.1l1.2,0.1c0.4,0,0.8,0,1.2,0
					l4.7-0.1l-0.4,0.3c0.1-2.2,0.2-4.4,0.3-6.7l0-6.7l-0.2-13.4c0-2.2-0.1-4.5-0.1-6.7c0-2.2,0.1-4.5,0.1-6.7
					c0.1-4.5,0.2-8.9,0.3-13.4l0.2,0.3c-0.6-0.5-1.2-1-1.8-1.5L80,87.1c-0.3-0.3-0.5-0.6-0.8-0.9c-0.3-0.3-0.5-0.6-0.8-0.9l-0.7-0.9
					c-0.2-0.3-0.4-0.6-0.6-1l-0.5-1c-0.2-0.3-0.4-0.7-0.5-1.1l-0.4-1.1c-0.1-0.4-0.3-0.7-0.4-1.1L75,78l-0.3-1.1
					c-0.1-0.4-0.2-0.7-0.3-1.1l-0.6-2.2l0.4,0.3l-1.1,0.2l0.3-0.4c0,1.7,0,3.4,0,5.1c0,1.7,0.1,3.4,0.2,5.1c0,0.2-0.1,0.4-0.4,0.4
					C73,84.2,72.9,84.1,72.8,83.9C72.8,83.9,72.8,83.9,72.8,83.9"/>
				<path class="st3" d="M73.6,83.8c0,2,0,3.9,0,5.9l0,1.5l0,1.5l0,2.9l0,5.9c0,2,0,3.9,0.1,5.9l-0.4-0.4c1.5-0.1,3.1-0.1,4.6-0.1
					c0.8,0,1.5,0,2.3,0c0.8,0,1.5,0,2.3,0c0.2,0,0.4,0.2,0.4,0.4c0,0.2-0.2,0.4-0.3,0.4l0,0c-0.8,0-1.5,0.1-2.3,0.1
					c-0.8,0-1.5,0-2.3,0c-1.5,0-3.1,0-4.6,0h0c-0.2,0-0.4-0.2-0.4-0.4v0c0-2,0.1-3.9,0.1-5.9l0.1-5.9l0-2.9c0-1,0-2,0-2.9
					c-0.1-2-0.2-3.9-0.3-5.9c0-0.2,0.1-0.4,0.3-0.4C73.4,83.5,73.6,83.6,73.6,83.8C73.6,83.8,73.6,83.8,73.6,83.8"/>
				<path class="st3" d="M69.6,83.2c0,2,0.1,4,0.1,6.1l0,1.5c0,0.5,0,1,0,1.5l0,3l0,6.1c0,2,0,4,0,6.1l-0.4-0.4l4-0.1
					c0.2,0,0.4,0.2,0.4,0.4c0,0.2-0.2,0.4-0.4,0.4l-4,0.1h0c-0.2,0-0.4-0.2-0.4-0.4v0c0.1-2,0.1-4,0.1-6.1l0.1-6.1l0-3
					c0-0.5,0-1,0-1.5l-0.1-1.5c-0.1-2-0.2-4-0.3-6.1c0-0.2,0.1-0.4,0.4-0.4C69.4,82.8,69.6,83,69.6,83.2L69.6,83.2"/>
				<path class="st3" d="M64.4,126.7l0.7,0.1l0,0c1.5,0,2.9,0,4.4,0c1.5,0,2.9,0,4.4-0.1l4.4-0.2c1.5,0,2.9-0.1,4.4-0.2
					c0.2,0,0.4,0.1,0.4,0.3c0,0.2-0.1,0.4-0.3,0.4h0c-1.5,0-2.9-0.1-4.4-0.1c-1.5,0-2.9,0-4.4,0.1c-1.5,0-2.9,0.1-4.4,0.1
					c-1.5,0.1-2.9,0.1-4.4,0.2h0l-0.7,0c-0.2,0-0.4-0.2-0.4-0.4C64,126.9,64.2,126.7,64.4,126.7C64.4,126.7,64.4,126.7,64.4,126.7"
					/>
				<path class="st10" d="M63.9,107.6c1.5,0,3.3-0.1,5.5-0.1"/>
				<path class="st10" d="M109.1,107.4c-1.5,0-3.3-0.1-5.5-0.1"/>
				<path class="st3" d="M108.6,127.3h-0.7h0c-1.5-0.1-2.9-0.2-4.4-0.2c-1.5-0.1-2.9-0.1-4.4-0.1c-1.5,0-2.9-0.1-4.4-0.1
					c-1.5,0-2.9,0-4.4,0.1c-0.2,0-0.4-0.2-0.4-0.4c0-0.2,0.1-0.4,0.4-0.4c0,0,0,0,0,0c2.9,0.2,5.9,0.3,8.8,0.4
					c1.5,0,2.9,0.1,4.4,0.1c1.5,0,2.9,0,4.4,0h0l0.7-0.1c0.2,0,0.4,0.1,0.4,0.3C109,127,108.8,127.2,108.6,127.3
					C108.6,127.3,108.6,127.3,108.6,127.3L108.6,127.3z"/>
				<path class="st3" d="M108.6,122.9c0,0-1.1,0-2.8-0.1c-1.7,0-4-0.1-6.3-0.1c-2.3,0-4.6-0.1-6.3-0.1c-1.7,0-2.8,0-2.8,0
					c-0.2,0-0.4-0.2-0.4-0.4c0-0.2,0.2-0.4,0.4-0.4h0c0,0,1.1,0,2.8,0.1c1.7,0,4,0.1,6.3,0.2c2.3,0,4.6,0.1,6.3,0.1
					c1.7,0,2.8,0,2.8,0c0.2,0,0.4,0.2,0.4,0.4C108.9,122.7,108.8,122.9,108.6,122.9L108.6,122.9z"/>
				<path class="st9" d="M108.8,112.2c0,0-1.1-0.1-2.9-0.2c-1.7-0.1-4-0.1-6.3-0.1c-1.2,0-2.3,0-3.4,0c-1.1,0-2.1,0-3,0
					c-1.7,0-2.9,0-2.9,0h0c-0.2,0-0.4-0.2-0.4-0.4c0-0.2,0.2-0.4,0.4-0.4c0,0,0,0,0,0c0,0,1.2,0.1,2.9,0.1c0.9,0,1.9,0.1,3,0.1
					c1.1,0,2.2,0.1,3.4,0.1c2.3,0.1,4.6,0.1,6.3,0.1c1.7,0,2.9-0.1,2.9-0.1l0,0c0.2,0,0.4,0.1,0.4,0.4
					C109.2,112,109.1,112.1,108.8,112.2C108.9,112.2,108.8,112.2,108.8,112.2"/>
				<path class="st9" d="M99.6,107.6c0,0-2.3-0.1-4.6-0.2c-1.2,0-2.3,0-3.2,0c-0.9,0-1.4,0-1.4,0h0c-0.2,0-0.4-0.1-0.4-0.4
					c0-0.2,0.1-0.4,0.3-0.4c0,0,0,0,0.1,0c0,0,0.6,0.1,1.4,0.1c0.9,0,2,0.1,3.2,0.1c2.3,0,4.6,0,4.6,0h0c0.2,0,0.4,0.2,0.4,0.4
					C100,107.4,99.8,107.6,99.6,107.6C99.6,107.6,99.6,107.6,99.6,107.6"/>
				<path class="st3" d="M64.4,122.3c0,0,1.1,0.1,2.8,0.1c0.9,0,1.9,0,2.9,0c1.1,0,2.2,0,3.3-0.1c2.3,0,4.6-0.1,6.3-0.2
					c1.7-0.1,2.8-0.1,2.8-0.1c0.2,0,0.4,0.1,0.4,0.4c0,0.2-0.2,0.4-0.4,0.4c0,0,0,0,0,0c0,0-1.1,0-2.9,0c-1.7,0-4,0-6.3,0
					c-1.1,0-2.3,0-3.3,0.1c-1.1,0-2.1,0.1-2.9,0.1c-1.7,0.1-2.8,0.2-2.8,0.2c-0.2,0-0.4-0.1-0.4-0.3C64,122.5,64.1,122.4,64.4,122.3
					C64.4,122.3,64.4,122.3,64.4,122.3"/>
				<path class="st9" d="M64.1,111.6c0,0,1.2,0,2.9,0.1c0.9,0,1.9,0,3,0c1.1,0,2.2,0,3.4,0c1.1,0,2.3-0.1,3.4-0.1
					c1.1,0,2.1-0.1,3-0.1c1.7-0.1,2.9-0.2,2.9-0.2c0.2,0,0.4,0.1,0.4,0.3c0,0.2-0.1,0.4-0.3,0.4c0,0,0,0-0.1,0h0
					c0,0-1.2-0.1-2.9-0.1c-0.9,0-1.9,0-3,0c-1.1,0-2.2,0-3.4,0c-1.2,0-2.3,0.1-3.4,0.1c-1.1,0-2.1,0.1-3,0.1
					c-1.7,0.1-2.9,0.2-2.9,0.2c-0.2,0-0.4-0.1-0.4-0.3C63.7,111.8,63.9,111.6,64.1,111.6C64.1,111.6,64.1,111.6,64.1,111.6
					L64.1,111.6z"/>
				<path class="st11" d="M106.5,118.8c0.1-0.2,0.1-0.6,0.1-1.3c0-1.6-0.4-2.3-1.3-2.3c-0.9,0-1.3,0.8-1.3,2.2v1
					c0.2,0.7,0.6,1.1,1.3,1.1C105.9,119.7,106.3,119.4,106.5,118.8 M68.2,119.1c0.1-0.2,0.1-0.6,0.1-1.3c0-1.5-0.5-2.3-1.3-2.3
					c-0.9,0-1.3,0.7-1.3,2.2v1.1c0.1,0.7,0.6,1.1,1.3,1.1C67.7,120,68.1,119.7,68.2,119.1 M66.7,98.9c0.1-0.2,0.1-0.7,0.1-1.3
					c0-1.6-0.4-2.3-1.3-2.3c-0.9,0-1.3,0.8-1.3,2.3v1.1c0.1,0.7,0.6,1.1,1.3,1.1C66.1,99.8,66.5,99.5,66.7,98.9 M107.4,98.5
					c0.9,0,1.3-0.6,1.3-1.7c0-1.3-0.5-2.2-1.5-2.8c-1-0.5-1.5-0.2-1.5,1l0.4,1.7C106.4,98,106.9,98.5,107.4,98.5"/>
				<path class="st3" d="M46.7,97.9c0,0,6.2,16.2,17.7,22.1l0.1-5.8c0,0-10.1-11-12.6-22.5L46.7,97.9z"/>
				<path class="st12" d="M97,173.5c-0.3,0-1.7,0-4.2-0.1c-2.6-0.1-5.3-0.1-8.3-0.2c-3-0.1-5.4,0-7.4,0.1c-2,0.1-4.6,0.3-7.9,0.7
					c-2.6,0.3-4.4,0.5-5.4,0.7c-1.3,0.4-0.7,0.7,1.8,0.7c2.5,0.1,4.6,0.1,6.2,0.1c1.6,0,4.1,0,7.4,0c3.3,0,5.9,0,7.8,0h7.6
					c3.2,0,5.7,0,7.3,0c1.6,0,3.7-0.1,6.2-0.1c0.4,0,0.8,0,1.1,0c1.6-0.1,1.9-0.3,0.8-0.7c-1-0.2-2.8-0.5-5.4-0.7
					C101.5,173.7,98.9,173.5,97,173.5"/>
				<path class="st13" d="M77.5,174.9c0.2-0.3,0.2-0.5,0-0.8c-0.8,0.2-2.1,0.4-3.9,0.4c-1.8,0.1-3.4-0.1-4.7-0.3
					c-0.1,0.3-0.1,0.6,0,0.8c1.3,0.3,2.9,0.4,4.7,0.3C75.4,175.2,76.7,175.1,77.5,174.9 M95.3,174.1c-0.2,0.3-0.2,0.6,0,0.8
					c0.8,0.2,2.1,0.4,3.9,0.4c1.8,0.1,3.4-0.1,4.7-0.3c0.1-0.2,0.1-0.5,0-0.8c-1.3,0.3-2.9,0.4-4.7,0.3
					C97.4,174.4,96.1,174.3,95.3,174.1"/>
				<path class="st14" d="M76.4,171c-0.3-0.7-0.5-1.5-0.6-2.2l-5.1-0.2c-0.1,0.2-0.2,0.5-0.3,1c-0.1,0.6-0.2,0.9-0.2,1
					c0.4-0.4,0.8-0.6,1.2-0.6c-0.4,0-0.8,0.2-1.2,0.6c-0.3,0.4-0.6,1-0.9,1.7c-0.3,0.7-0.5,1.3-0.4,1.9c1.3,0.3,2.9,0.4,4.7,0.3
					c1.8-0.1,3.1-0.2,3.9-0.4c0-0.7-0.2-1.5-0.6-2.3C76.7,171.4,76.6,171.2,76.4,171c-0.4-0.5-0.9-0.8-1.4-0.9
					C75.5,170.2,76,170.5,76.4,171 M96,171.7c-0.4,0.8-0.6,1.6-0.6,2.3c0.8,0.2,2.1,0.4,3.9,0.4c1.8,0.1,3.4-0.1,4.7-0.3
					c0.1-0.6-0.1-1.2-0.4-1.9c-0.3-0.7-0.6-1.2-0.9-1.7c-0.4-0.4-0.8-0.6-1.2-0.6c0.4,0,0.8,0.2,1.2,0.6c0-0.1-0.1-0.4-0.2-1
					c-0.1-0.4-0.2-0.8-0.3-1l-5.1,0.2c-0.1,0.7-0.3,1.5-0.6,2.2c0.4-0.5,0.9-0.8,1.4-0.9c-0.5,0.1-1,0.4-1.4,0.9
					C96.3,171.2,96.1,171.4,96,171.7"/>
				<path class="st9" d="M96.6,171.1c-0.1,0.1-0.2,0.2-0.3,0.3c-0.1,0.1-0.1,0.2-0.2,0.3c0,0-0.1,0.1-0.1,0.2l-0.1,0.2
					c-0.1,0.1-0.1,0.2-0.2,0.4c0,0.1-0.1,0.3-0.1,0.4c0,0.1-0.1,0.3-0.1,0.4l0,0.2c0,0.1,0,0.1,0,0.2c0,0.1,0,0.3,0,0.4l-0.1-0.2
					l0.5,0.1c0.2,0.1,0.3,0.1,0.5,0.1c0.4,0.1,0.7,0.1,1.1,0.1c0.4,0,0.7,0.1,1.1,0.1l0.5,0c0.2,0,0.4,0,0.5,0c0.4,0,0.7,0,1.1,0
					l0.5,0c0.2,0,0.4,0,0.5,0l1.1-0.1c0.3-0.1,0.7-0.2,1-0.2l-0.2,0.2l0-0.2c0-0.1,0-0.2,0-0.2l0-0.2c0-0.1,0-0.1,0-0.2
					c0-0.2-0.1-0.3-0.1-0.5l-0.2-0.4c0-0.1-0.1-0.2-0.1-0.2l-0.1-0.2l-0.2-0.4c-0.1-0.1-0.2-0.3-0.2-0.4l-0.2-0.4l0,0l-0.2-0.2
					c-0.1-0.1-0.2-0.1-0.3-0.2c-0.1-0.1-0.2-0.1-0.3-0.1c0,0-0.1,0-0.2,0c-0.1,0-0.1,0-0.1,0l0,0c-0.1,0-0.2,0-0.3-0.1
					c0-0.1,0-0.2,0.1-0.3c0.1,0,0.1,0,0.2,0c0.1,0,0.1,0.1,0.2,0.1c0.1,0,0.1,0,0.2,0.1c0.1,0.1,0.2,0.1,0.3,0.2
					c0.1,0.1,0.2,0.1,0.3,0.2l0.3,0.2c0,0,0,0,0,0l0.3,0.4c0.1,0.1,0.2,0.3,0.2,0.4l0.2,0.4l0.1,0.2c0,0.1,0.1,0.1,0.1,0.2l0.2,0.5
					c0,0.2,0.1,0.3,0.2,0.5c0,0.1,0,0.2,0,0.2l0,0.3c0,0.1,0,0.2,0,0.3v0.3c0,0.1-0.1,0.1-0.1,0.2l0,0l-1.1,0.1l-1.1,0.1l-1.1,0
					c-0.4,0-0.7,0-1.1,0c-0.2,0-0.4,0-0.5,0l-0.5,0c-0.4,0-0.7,0-1.1-0.1l-0.5,0l-0.5-0.1c-0.2,0-0.4,0-0.5-0.1l-0.5-0.1l-0.1,0
					c-0.1,0-0.1-0.1-0.1-0.2c0-0.1,0.1-0.3,0.1-0.4c0-0.1,0-0.1,0-0.2l0.1-0.2c0-0.1,0.1-0.3,0.1-0.4l0.1-0.4c0-0.1,0.1-0.3,0.2-0.4
					l0.1-0.2c0-0.1,0-0.1,0.1-0.2l0.2-0.4c0.1-0.1,0.1-0.2,0.2-0.4c0.1-0.1,0.2-0.1,0.3-0.1C96.6,170.9,96.7,171,96.6,171.1
					C96.6,171.1,96.6,171.1,96.6,171.1"/>
				<path class="st9" d="M104.2,174.1c0,0.1,0,0.1,0,0.2c0,0,0,0.1,0,0.1l0,0.1c0,0,0,0.1,0,0.1l0,0.1c0,0,0,0.1,0,0.1
					c0,0,0,0.1,0,0.1c0,0,0,0,0,0l-0.1,0.1l-1.1,0.2l-1.1,0.1l-1.1,0c-0.4,0-0.7,0-1.1,0c-0.4,0-0.7,0-1.1,0c-0.4,0-0.7,0-1.1-0.1
					c-0.4,0-0.7-0.1-1.1-0.1c-0.2,0-0.4,0-0.5-0.1l-0.5-0.1c0,0-0.1,0-0.1-0.1l0,0c0-0.1,0-0.2-0.1-0.3c0-0.1,0-0.2,0-0.3
					c0-0.2,0-0.3,0.1-0.5l0,0c0-0.1,0.1-0.2,0.3-0.2c0.1,0,0.2,0.1,0.2,0.3c0,0.1-0.1,0.1-0.1,0.2c-0.1,0.1-0.2,0.2-0.2,0.3
					c0,0.1,0,0.1,0,0.2c0,0.1,0.1,0.1,0.2,0.1l-0.1-0.1l0.5,0.1c0.2,0,0.3,0.1,0.5,0.1c0.3,0.1,0.7,0.1,1.1,0.1
					c0.4,0,0.7,0.1,1.1,0.1c0.4,0,0.7,0,1.1,0c0.4,0,0.7,0,1.1,0c0.4,0,0.7,0,1.1-0.1l1.1-0.1l1.1-0.2l-0.1,0.1c0,0,0,0,0.1-0.1
					c0,0,0,0,0-0.1c0-0.1,0-0.1,0-0.2l0-0.1c0,0,0-0.1,0-0.1c0-0.1-0.1-0.1-0.1-0.2c-0.1-0.1,0-0.2,0.1-0.3c0.1-0.1,0.2,0,0.3,0.1
					C104.1,174,104.2,174,104.2,174.1"/>
				<path class="st9" d="M97.9,170.3c-0.1,0-0.1,0-0.2,0c-0.1,0-0.1,0-0.2,0.1l-0.2,0.1c-0.1,0-0.1,0.1-0.2,0.1l-0.2,0.1
					c-0.1,0-0.1,0.1-0.2,0.1c-0.1,0.1-0.2,0.2-0.3,0.3l0,0c-0.1,0.1-0.2,0.1-0.3,0c-0.1-0.1-0.1-0.2,0-0.3c0.1-0.2,0.2-0.3,0.3-0.5
					c0.1-0.2,0.1-0.4,0.2-0.5c0-0.2,0.1-0.4,0.1-0.6c0-0.2,0-0.4,0-0.6c0-0.1,0.1-0.2,0.2-0.2h0l5.1-0.2h0c0.1,0,0.1,0,0.1,0.1
					c0,0.2,0.1,0.4,0.1,0.5l0.1,0.3l0.1,0.3c0,0.2,0.1,0.3,0.1,0.5c0.1,0.2,0.1,0.3,0.2,0.5c0,0.1,0,0.2-0.1,0.3
					c-0.1,0-0.2,0-0.3-0.1c0-0.1,0-0.1,0-0.1l0,0c0-0.1,0-0.2,0-0.2c0-0.1,0-0.2,0-0.3c0-0.2-0.1-0.3-0.1-0.5c0-0.1-0.1-0.2-0.1-0.2
					l-0.1-0.2c-0.1-0.1-0.1-0.3-0.2-0.4l0.2,0.1l-5.1,0.2l0.2-0.2c-0.1,0.2-0.1,0.4-0.2,0.6c-0.1,0.2-0.1,0.4-0.2,0.6
					c-0.1,0.2-0.1,0.4-0.2,0.6c-0.1,0.2-0.1,0.4-0.2,0.6l-0.3-0.2c0.1-0.1,0.2-0.2,0.3-0.3c0.1,0,0.1-0.1,0.2-0.1l0.2-0.1
					c0.1,0,0.1-0.1,0.2-0.1l0.2-0.1c0.1-0.1,0.3-0.1,0.4-0.2c0.1-0.1,0.2,0,0.3,0.1C98.1,170.1,98.1,170.2,97.9,170.3
					C98,170.3,98,170.3,97.9,170.3"/>
				<path class="st9" d="M68.7,174.1l0-0.2c0-0.1,0-0.2,0-0.2l0-0.3c0-0.1,0-0.2,0-0.3c0-0.2,0.1-0.3,0.1-0.5l0.2-0.5
					c0-0.1,0.1-0.1,0.1-0.2l0.1-0.2c0.1-0.1,0.2-0.3,0.2-0.4c0.1-0.2,0.2-0.3,0.2-0.4c0.1-0.2,0.1-0.3,0.2-0.5l0,0.1l0-0.3
					c0-0.1,0-0.2,0.1-0.3l0.1-0.5c0-0.1,0-0.1,0-0.1l0-0.1l0.1-0.2l0.2-0.5c0-0.1,0.1-0.1,0.2-0.1h0l5.1,0.2c0.1,0,0.2,0.1,0.2,0.2
					v0v0c0,0.2,0,0.4,0,0.6c0,0.2,0.1,0.4,0.1,0.6l0.2,0.5l0.2,0.5l0,0l0.3,0.3l0.2,0.4c0.1,0.1,0.1,0.1,0.1,0.2l0.1,0.2
					c0.1,0.1,0.1,0.2,0.2,0.4l0.1,0.4c0.1,0.1,0.1,0.3,0.1,0.4l0.1,0.2c0,0.1,0,0.1,0,0.2l0.1,0.4l0-0.1c0.1,0.2,0.1,0.3,0.1,0.5
					c0,0.1,0,0.2,0,0.3c0,0.1-0.1,0.2-0.1,0.3c0,0-0.1,0.1-0.1,0.1l0,0l-0.5,0.2c-0.2,0-0.4,0.1-0.5,0.1c-0.4,0.1-0.7,0.1-1.1,0.1
					c-0.4,0-0.7,0.1-1.1,0.1l-0.5,0c-0.2,0-0.4,0-0.6,0c-0.4,0-0.7,0-1.1,0c-0.4,0-0.7,0-1.1-0.1l-1.1-0.1c-0.4-0.1-0.7-0.2-1.1-0.2
					l-0.1-0.1c0,0,0,0,0,0c0-0.1,0-0.1,0-0.1c0,0,0-0.1,0-0.1l0-0.1c0,0,0-0.1,0-0.1c0-0.1,0-0.2,0-0.2
					C68.7,174.2,68.7,174.1,68.7,174.1c0-0.2,0.1-0.2,0.2-0.2c0.3,0.1,0.7,0.2,1,0.2l1.1,0.1c0.2,0,0.4,0,0.5,0l0.5,0
					c0.4,0,0.7,0,1.1,0c0.4,0,0.7,0,1.1-0.1c0.4,0,0.7,0,1.1-0.1c0.4,0,0.7-0.1,1.1-0.1c0.2,0,0.4-0.1,0.5-0.1l0.5-0.1l0,0
					c0.1,0,0.2,0,0.2,0.1c0,0.1,0,0.2-0.1,0.2c0,0,0,0,0,0l-0.5,0.1c-0.2,0-0.4,0-0.5,0.1l-0.5,0.1l-0.5,0c-0.4,0-0.7,0-1.1,0.1
					c-0.4,0-0.7,0-1.1,0c-0.4,0-0.7,0-1.1,0l-1.1,0l-1.1-0.1l-1.1-0.1l0.2-0.1c0,0.1-0.1,0.1-0.1,0.2c0,0.1,0,0.1,0,0.2
					c0,0.1,0,0.1,0,0.2c0,0,0,0.1,0,0.1c0,0,0,0,0.1,0.1l-0.1-0.1l1.1,0.1L71,175l1.1,0c0.3,0,0.7,0,1.1,0c0.2,0,0.4,0,0.5,0l0.5,0
					c0.4,0,0.7,0,1.1-0.1c0.4,0,0.7,0,1.1-0.1c0.2,0,0.4,0,0.5-0.1l0.5-0.1l-0.1,0.1c0.1,0,0.1-0.1,0.1-0.1c0-0.1,0-0.1,0-0.2
					c0-0.1-0.1-0.2-0.2-0.3l0,0c0,0,0-0.1,0-0.1l0-0.4c0-0.1,0-0.1,0-0.2l0-0.2c0-0.1,0-0.3-0.1-0.4l-0.1-0.4c0-0.1-0.1-0.3-0.1-0.4
					l-0.1-0.2c0-0.1-0.1-0.1-0.1-0.2l-0.2-0.3l-0.2-0.3l0,0l0,0l-0.2-0.5l-0.2-0.6c0-0.2-0.1-0.4-0.2-0.6c0-0.2-0.1-0.4-0.2-0.6
					l0.2,0.2l-5.1-0.2l0.2-0.1l-0.3,1l-0.1,0.5c0,0.1,0,0.2-0.1,0.2l0,0.2l0,0.1c-0.1,0.1-0.2,0.3-0.3,0.4c-0.1,0.1-0.2,0.3-0.3,0.4
					c-0.1,0.2-0.1,0.3-0.2,0.4l-0.1,0.2c0,0.1-0.1,0.1-0.1,0.2l-0.2,0.4c0,0.2-0.1,0.3-0.1,0.5c0,0.1,0,0.1,0,0.2l0,0.2
					c0,0.1,0,0.2,0,0.2l0,0.2c0,0.1-0.1,0.2-0.2,0.2C68.8,174.4,68.7,174.3,68.7,174.1L68.7,174.1"/>
				<path class="st9" d="M71.4,170.2c0,0-0.1,0-0.2,0c0,0-0.1,0-0.1,0c0,0-0.1,0-0.1,0c-0.1,0-0.1,0-0.2,0.1c-0.1,0-0.1,0.1-0.2,0.1
					c0,0-0.1,0.1-0.1,0.1l-0.1,0.1c-0.1,0.1-0.1,0.2-0.1,0.2l0,0c-0.1,0.1-0.2,0.1-0.3,0c-0.1-0.1-0.1-0.2,0-0.3c0,0,0,0,0.1,0
					c0,0,0.1-0.1,0.2-0.1c0.1-0.1,0.3-0.2,0.4-0.3c0.1-0.1,0.2-0.1,0.3-0.1c0,0,0.1,0,0.1-0.1c0,0,0.1,0,0.1,0
					c0.1,0,0.2-0.1,0.2-0.1c0.1,0,0.2,0,0.3,0.1C71.6,170,71.6,170.1,71.4,170.2C71.4,170.2,71.4,170.2,71.4,170.2"/>
				<path class="st9" d="M75,169.9c0,0,0.1,0.1,0.2,0.1c0.1,0,0.2,0.1,0.3,0.1c0.1,0.1,0.2,0.1,0.3,0.2c0.1,0.1,0.2,0.1,0.3,0.2
					c0.1,0.1,0.2,0.1,0.2,0.2c0.1,0.1,0.2,0.2,0.2,0.2c0.1,0.1,0.1,0.2,0.1,0.3s-0.2,0.1-0.3,0.1c0,0-0.1,0-0.1-0.1l0,0
					c0,0-0.1-0.1-0.1-0.2c-0.1-0.1-0.1-0.1-0.2-0.2c-0.1-0.1-0.2-0.1-0.2-0.2c0,0-0.1,0-0.1-0.1c0,0-0.1,0-0.1-0.1
					c-0.1,0-0.2-0.1-0.3-0.1c-0.2,0-0.3,0-0.3,0c-0.1,0-0.2-0.1-0.2-0.2C74.7,170,74.8,169.9,75,169.9C75,169.9,75,169.9,75,169.9"
					/>
				<path class="st15" d="M71.8,172.2c0.4-0.4,0.6-0.6,0.6-0.8c0-0.8-0.4-1.1-1.1-0.8c-0.7,0.3-1.1,0.7-1.1,1.3c0,0,0,0.2,0,0.4
					c0.1,0.3,0.3,0.4,0.7,0.4C71.1,172.7,71.4,172.5,71.8,172.2 M101.8,172.4c0.4,0,0.6-0.3,0.6-0.8c0-0.6-0.4-1-1.1-1.3
					c-0.7-0.3-1.1-0.1-1.1,0.5c0,0,0.2,0.3,0.5,0.8C101.1,172.1,101.5,172.4,101.8,172.4"/>
				<path class="st3" d="M226.1,94.5c0,0,0.2,6.6-0.1,8.2c-0.3,1.6-0.5,8.1-4.8,9.5c-4.4,1.4-22,5.2-24.2,5.5
					c-2.2,0.4-8.2,0.5-9.6-0.6c-1.4-1.1-3-4.9-3-4.9s-4.7-8.3-5.5-11.6c-0.9-3.4,2.1-6.2,6.8-7.1c4.7-0.9,27.4-4.7,30.4-3.8
					C219,90.6,223.1,87.5,226.1,94.5"/>
				<path class="st3" d="M132.3,94.5c0,0-0.2,6.6,0.1,8.2c0.3,1.6,0.5,8.1,4.8,9.5c4.4,1.4,22,5.2,24.2,5.5c2.2,0.4,8.2,0.5,9.6-0.6
					c1.4-1.1,3-4.9,3-4.9s4.7-8.3,5.5-11.6c0.9-3.4-2.1-6.2-6.8-7.1c-4.7-0.9-27.4-4.7-30.4-3.8C139.3,90.6,135.3,87.5,132.3,94.5"
					/>
				<path class="st16" d="M170.5,115.3c0,0,5.3,1.8,6.1-2.1c0.9-4,4.4-15.6,7.4-16.7c3-1.1,27.9-4.9,43.7-7.6c0,0,2.4-6.1-5.9-5.9
					c-8.2,0.1-38.8,6.4-38.8,6.4s-4.1,0.1-5.8,4.7C175.4,98.5,170.5,115.3,170.5,115.3"/>
			</g>
			<g class="st2">
				<defs>
					<path id="SVGID_7_" d="M221.8,82.9c-8.2,0.1-38.8,6.4-38.8,6.4s-4.1,0.1-5.8,4.7c-1.7,4.5-6.7,21.3-6.7,21.3s5.3,1.8,6.1-2.1
						c0.9-4,4.4-15.6,7.4-16.7c3-1.1,27.9-4.9,43.7-7.6c0,0,2.3-5.9-5.6-5.9C222,82.9,221.9,82.9,221.8,82.9"/>
				</defs>
				<clipPath id="SVGID_8_">
					<use xlink:href="#SVGID_7_"  style="overflow:visible;"/>
				</clipPath>
				<defs>
					<filter id="Adobe_OpacityMaskFilter" filterUnits="userSpaceOnUse" x="170.5" y="82.9" width="59.5" height="34.2">
						<feColorMatrix  type="matrix" values="1 0 0 0 0  0 1 0 0 0  0 0 1 0 0  0 0 0 1 0"/>
					</filter>
				</defs>
				<mask maskUnits="userSpaceOnUse" x="170.5" y="82.9" width="59.5" height="34.2" id="SVGID_9_">
					<g class="st17">
						<rect x="170.5" y="82.9" class="st18" width="59.5" height="34.2"/>
						<g class="st0">
							
								<radialGradient id="SVGID_10_" cx="9.094947e-13" cy="283.5" r="1" gradientTransform="matrix(23.4213 0 0 23.38 199.1394 -6528.9189)" gradientUnits="userSpaceOnUse">
								<stop  offset="0" style="stop-color:#000000"/>
								<stop  offset="0.2246" style="stop-color:#5E5D61"/>
								<stop  offset="0.7362" style="stop-color:#C9CACF"/>
								<stop  offset="0.9922" style="stop-color:#FFFFFF"/>
								<stop  offset="1" style="stop-color:#FFFFFF"/>
							</radialGradient>
							<rect x="170.5" y="82.9" class="st19" width="59.5" height="34.2"/>
						</g>
					</g>
				</mask>
				<g class="st20">
					<g>
						<defs>
							<rect id="SVGID_11_" x="170.5" y="82.9" width="59.5" height="34.2"/>
						</defs>
						<clipPath id="SVGID_12_">
							<use xlink:href="#SVGID_11_"  style="overflow:visible;"/>
						</clipPath>
						<g class="st21">
							<defs>
								<rect id="SVGID_13_" x="170.5" y="82.9" width="59.5" height="34.2"/>
							</defs>
							<clipPath id="SVGID_14_">
								<use xlink:href="#SVGID_13_"  style="overflow:visible;"/>
							</clipPath>
							
								<radialGradient id="SVGID_15_" cx="9.094947e-13" cy="283.5" r="1" gradientTransform="matrix(23.4213 0 0 23.38 199.1394 -6528.9189)" gradientUnits="userSpaceOnUse">
								<stop  offset="0" style="stop-color:#AA9023"/>
								<stop  offset="0.9922" style="stop-color:#9F8521"/>
								<stop  offset="1" style="stop-color:#9F8521"/>
							</radialGradient>
							<rect x="170.5" y="82.9" class="st22" width="59.5" height="34.2"/>
						</g>
					</g>
				</g>
			</g>
			<g class="st2">
				<defs>
					<rect id="SVGID_16_" x="0.2" y="-0.2" width="284.5" height="284"/>
				</defs>
				<clipPath id="SVGID_17_">
					<use xlink:href="#SVGID_16_"  style="overflow:visible;"/>
				</clipPath>
				<path class="st23" d="M188.7,115.3c0,0-5.3,1.8-6.1-2.1c-0.9-4-4.4-15.6-7.4-16.7c-3-1.1-27.9-4.9-43.7-7.6c0,0-2.4-6.1,5.9-5.9
					c8.2,0.1,38.8,6.4,38.8,6.4s4.1,0.1,5.8,4.7C183.8,98.5,188.7,115.3,188.7,115.3"/>
			</g>
			<g class="st2">
				<defs>
					<path id="SVGID_18_" d="M131.5,88.8c15.8,2.7,40.7,6.4,43.7,7.6c3,1.1,6.5,12.8,7.4,16.7c0.9,4,6.1,2.1,6.1,2.1
						s-5-16.7-6.7-21.3c-1.7-4.5-5.8-4.7-5.8-4.7s-30.6-6.2-38.8-6.4c-0.1,0-0.2,0-0.3,0C129.2,82.9,131.5,88.8,131.5,88.8"/>
				</defs>
				<clipPath id="SVGID_19_">
					<use xlink:href="#SVGID_18_"  style="overflow:visible;"/>
				</clipPath>
				<defs>
					<filter id="Adobe_OpacityMaskFilter_1_" filterUnits="userSpaceOnUse" x="129.2" y="82.9" width="59.5" height="34.2">
						<feColorMatrix  type="matrix" values="1 0 0 0 0  0 1 0 0 0  0 0 1 0 0  0 0 0 1 0"/>
					</filter>
				</defs>
				<mask maskUnits="userSpaceOnUse" x="129.2" y="82.9" width="59.5" height="34.2" id="SVGID_20_">
					<g class="st24">
						<rect x="129.2" y="82.9" class="st25" width="59.5" height="34.2"/>
						<g class="st0">
							
								<radialGradient id="SVGID_21_" cx="0" cy="283.5" r="1" gradientTransform="matrix(23.425 0 0 23.3837 159.9341 -6529.9756)" gradientUnits="userSpaceOnUse">
								<stop  offset="0" style="stop-color:#000000"/>
								<stop  offset="0.2246" style="stop-color:#5E5D61"/>
								<stop  offset="0.7362" style="stop-color:#C9CACF"/>
								<stop  offset="0.9922" style="stop-color:#FFFFFF"/>
								<stop  offset="1" style="stop-color:#FFFFFF"/>
							</radialGradient>
							<rect x="129.2" y="82.9" class="st26" width="59.5" height="34.2"/>
						</g>
					</g>
				</mask>
				<g class="st27">
					<g>
						<defs>
							<rect id="SVGID_22_" x="129.2" y="82.9" width="59.5" height="34.2"/>
						</defs>
						<clipPath id="SVGID_23_">
							<use xlink:href="#SVGID_22_"  style="overflow:visible;"/>
						</clipPath>
						<g class="st28">
							<defs>
								<rect id="SVGID_24_" x="129.2" y="82.9" width="59.5" height="34.2"/>
							</defs>
							<clipPath id="SVGID_25_">
								<use xlink:href="#SVGID_24_"  style="overflow:visible;"/>
							</clipPath>
							
								<radialGradient id="SVGID_26_" cx="0" cy="283.5" r="1" gradientTransform="matrix(23.425 0 0 23.3837 159.9341 -6529.9756)" gradientUnits="userSpaceOnUse">
								<stop  offset="0" style="stop-color:#AA9023"/>
								<stop  offset="0.9922" style="stop-color:#9F8521"/>
								<stop  offset="1" style="stop-color:#9F8521"/>
							</radialGradient>
							<rect x="129.2" y="82.9" class="st29" width="59.5" height="34.2"/>
						</g>
					</g>
				</g>
			</g>
			<g class="st2">
				<defs>
					<rect id="SVGID_27_" x="0.2" y="-0.2" width="284.5" height="284"/>
				</defs>
				<clipPath id="SVGID_28_">
					<use xlink:href="#SVGID_27_"  style="overflow:visible;"/>
				</clipPath>
				<g class="st30">
					<g>
						<defs>
							<rect id="SVGID_29_" x="132" y="87.4" width="94.8" height="30.7"/>
						</defs>
						<clipPath id="SVGID_30_">
							<use xlink:href="#SVGID_29_"  style="overflow:visible;"/>
						</clipPath>
					</g>
				</g>
				<g class="st31">
					<g>
						<defs>
							<rect id="SVGID_31_" x="132" y="87.6" width="94.8" height="30.4"/>
						</defs>
						<clipPath id="SVGID_32_">
							<use xlink:href="#SVGID_31_"  style="overflow:visible;"/>
						</clipPath>
						<g class="st32">
							<defs>
								<rect id="SVGID_33_" x="132" y="87.6" width="94.8" height="30.4"/>
							</defs>
							<clipPath id="SVGID_34_">
								<use xlink:href="#SVGID_33_"  style="overflow:visible;"/>
							</clipPath>
							<path class="st33" d="M224.1,87.6c3.5,3.9,2,21.9-2.1,23.6c-4.5,2-31.9,9.7-35.3,4.6c-3.4-5-4.2-12.7-7.4-13
								c-3.2,0.3-4,7.9-7.4,13c-3.4,5.1-30.8-2.6-35.3-4.6c-4-1.8-5.6-19.7-2.1-23.6c-4.4,2.5-2.8,22.3,1.5,24.1
								c4.6,2,32.3,9.7,35.8,4.6c3.5-5,4.2-12.7,7.5-13c3.3,0.3,4,7.9,7.5,13c3.5,5.1,31.2-2.6,35.8-4.6
								C226.9,109.9,228.5,90.1,224.1,87.6"/>
						</g>
					</g>
				</g>
				<path class="st34" d="M227.5,85.7c0-0.7-0.6-1.2-1.2-1.2h0c-2,0.6-22.3,1.2-47,1.2c-24.5,0-44.6-0.5-46.9-1.1
					c-0.6,0.1-1,0.6-1,1.2v4.7c0,0.1,0,0.2,0,0.2L132,98c0,0,0.4,1,1.4-1.1c1-2.1,3.2-5.2,4.8-5.2h82.3c1.7,0.1,3.8,3.1,4.8,5.2
					c1,2.1,1.4,1.1,1.4,1.1l0.7-7.3c0-0.1,0-0.2,0-0.3V85.7z"/>
				<g class="st35">
					<g>
						<defs>
							<rect id="SVGID_35_" x="131" y="82.7" width="96.8" height="18.1"/>
						</defs>
						<clipPath id="SVGID_36_">
							<use xlink:href="#SVGID_35_"  style="overflow:visible;"/>
						</clipPath>
						<g class="st36">
							<defs>
								<path id="SVGID_37_" d="M226.2,84.5c-2,0.6-22.3,1.2-47,1.2c-24.5,0-44.6-0.5-46.9-1.1c-0.6,0.1-1,0.6-1,1.2v4.8
									c0,0.1,0,0.2,0,0.2L132,98c0,0,0.1,0.2,0.3,0.2h0c0.2,0,0.6-0.3,1.1-1.4c1-2.1,3.2-5.2,4.8-5.2h82.3c1.7,0,3.8,3.1,4.8,5.2
									c0.5,1.1,0.9,1.4,1.1,1.4h0c0.2,0,0.3-0.2,0.3-0.2l0.7-7.3c0-0.1,0-0.2,0-0.3v-4.8C227.5,85,226.9,84.5,226.2,84.5
									L226.2,84.5z"/>
							</defs>
							<clipPath id="SVGID_38_">
								<use xlink:href="#SVGID_37_"  style="overflow:visible;"/>
							</clipPath>
							<defs>
								<filter id="Adobe_OpacityMaskFilter_2_" filterUnits="userSpaceOnUse" x="130.6" y="80.9" width="97.4" height="21.7">
									<feColorMatrix  type="matrix" values="1 0 0 0 0  0 1 0 0 0  0 0 1 0 0  0 0 0 1 0"/>
								</filter>
							</defs>
							<mask maskUnits="userSpaceOnUse" x="130.6" y="80.9" width="97.4" height="21.7" id="SVGID_39_">
								<g class="st37">
									<rect x="131" y="82.7" class="st38" width="96.8" height="18.1"/>
									<g class="st0">
										<g>
											<defs>
												
													<rect id="SVGID_40_" x="131.1" y="83.6" transform="matrix(0.9998 -1.848136e-02 1.848136e-02 0.9998 -1.6651 3.3306)" width="96.5" height="16.3"/>
											</defs>
											<clipPath id="SVGID_41_" class="st38">
												<use xlink:href="#SVGID_40_"  style="overflow:visible;"/>
											</clipPath>
											
												<radialGradient id="SVGID_42_" cx="2.728484e-12" cy="283.5" r="1" gradientTransform="matrix(56.7334 -1.0497 8.100350e-02 4.3618 153.4672 -1143.2622)" gradientUnits="userSpaceOnUse">
												<stop  offset="0" style="stop-color:#FFFFFF"/>
												<stop  offset="0.7656" style="stop-color:#FFFFFF"/>
												<stop  offset="0.8261" style="stop-color:#C9CACF"/>
												<stop  offset="0.9469" style="stop-color:#5E5D61"/>
												<stop  offset="1" style="stop-color:#000000"/>
											</radialGradient>
											<polygon class="st39" points="131,102.6 228.1,100.8 227.7,80.9 130.6,82.7 											"/>
										</g>
									</g>
								</g>
							</mask>
							<g class="st40">
								<g>
									<defs>
										<rect id="SVGID_43_" x="131" y="82.7" width="96.8" height="18.1"/>
									</defs>
									<clipPath id="SVGID_44_">
										<use xlink:href="#SVGID_43_"  style="overflow:visible;"/>
									</clipPath>
									<g class="st41">
										<defs>
											
												<rect id="SVGID_45_" x="131.1" y="83.6" transform="matrix(0.9998 -1.848136e-02 1.848136e-02 0.9998 -1.6651 3.3306)" width="96.5" height="16.3"/>
										</defs>
										<clipPath id="SVGID_46_">
											<use xlink:href="#SVGID_45_"  style="overflow:visible;"/>
										</clipPath>
										
											<radialGradient id="SVGID_47_" cx="1.818989e-12" cy="283.5" r="1" gradientTransform="matrix(56.7635 -1.0503 8.104666e-02 4.3641 153.4549 -1143.9192)" gradientUnits="userSpaceOnUse">
											<stop  offset="0" style="stop-color:#9F8521"/>
											<stop  offset="0.7656" style="stop-color:#9F8521"/>
											<stop  offset="1" style="stop-color:#AA9023"/>
										</radialGradient>
										<polygon class="st42" points="131,102.6 228.1,100.8 227.7,80.9 130.6,82.7 										"/>
									</g>
								</g>
							</g>
						</g>
					</g>
				</g>
				<g class="st35">
					<g>
						<defs>
							<rect id="SVGID_48_" x="131.5" y="84.5" width="96.2" height="14.6"/>
						</defs>
						<clipPath id="SVGID_49_">
							<use xlink:href="#SVGID_48_"  style="overflow:visible;"/>
						</clipPath>
						<g class="st43">
							<defs>
								<path id="SVGID_50_" d="M226.4,84.5c-2,0.6-22.3,1.2-47,1.2c-24.4,0-44.6-0.5-46.9-1.1c-0.6,0.1-1,0.6-1,1.2v4.8
									c0,0.1,0,0.2,0,0.2l0.7,7.3c0,0,0.1,0.2,0.3,0.2h0c0.2,0,0.6-0.3,1.1-1.4c1-2.1,3.2-5.2,4.8-5.2h82.4c1.7,0,3.8,3.1,4.8,5.2
									c0.5,1.1,0.9,1.4,1.1,1.4h0c0.2,0,0.3-0.2,0.3-0.2l0.7-7.3c0-0.1,0-0.2,0-0.3v-4.8C227.7,85,227.1,84.5,226.4,84.5
									L226.4,84.5z"/>
							</defs>
							<clipPath id="SVGID_51_">
								<use xlink:href="#SVGID_50_"  style="overflow:visible;"/>
							</clipPath>
							<defs>
								<filter id="Adobe_OpacityMaskFilter_3_" filterUnits="userSpaceOnUse" x="131.5" y="84.5" width="96.2" height="14.6">
									<feColorMatrix  type="matrix" values="1 0 0 0 0  0 1 0 0 0  0 0 1 0 0  0 0 0 1 0"/>
								</filter>
							</defs>
							<mask maskUnits="userSpaceOnUse" x="131.5" y="84.5" width="96.2" height="14.6" id="SVGID_52_">
								<g class="st44">
									<rect x="131.5" y="84.5" class="st45" width="96.2" height="14.6"/>
									<g class="st0">
										
											<linearGradient id="SVGID_53_" gradientUnits="userSpaceOnUse" x1="-174.6655" y1="124.1886" x2="-172.6617" y2="124.1886" gradientTransform="matrix(0 0.5664 -0.5664 0 249.9266 184.6846)">
											<stop  offset="0" style="stop-color:#FFFFFF"/>
											<stop  offset="0.7656" style="stop-color:#FFFFFF"/>
											<stop  offset="0.8261" style="stop-color:#C9CACF"/>
											<stop  offset="0.9469" style="stop-color:#5E5D61"/>
											<stop  offset="1" style="stop-color:#000000"/>
										</linearGradient>
										<rect x="131.5" y="84.5" class="st46" width="96.2" height="14.6"/>
									</g>
								</g>
							</mask>
							<g class="st47">
								<g>
									<defs>
										<rect id="SVGID_54_" x="131.5" y="84.5" width="96.2" height="14.6"/>
									</defs>
									<clipPath id="SVGID_55_">
										<use xlink:href="#SVGID_54_"  style="overflow:visible;"/>
									</clipPath>
									<g class="st48">
										<defs>
											<rect id="SVGID_56_" x="131.5" y="84.5" width="96.2" height="14.6"/>
										</defs>
										<clipPath id="SVGID_57_">
											<use xlink:href="#SVGID_56_"  style="overflow:visible;"/>
										</clipPath>
										
											<linearGradient id="SVGID_58_" gradientUnits="userSpaceOnUse" x1="-174.6655" y1="124.1886" x2="-172.6617" y2="124.1886" gradientTransform="matrix(0 0.5664 -0.5664 0 249.9266 184.6846)">
											<stop  offset="0" style="stop-color:#9F8521"/>
											<stop  offset="0.7656" style="stop-color:#9F8521"/>
											<stop  offset="1" style="stop-color:#AA9023"/>
										</linearGradient>
										<rect x="131.5" y="84.5" class="st49" width="96.2" height="14.6"/>
									</g>
								</g>
							</g>
						</g>
					</g>
				</g>
			</g>
			<g class="st2">
				<defs>
					<path id="SVGID_59_" d="M131.2,87.3c0,0.2,21.7,0.3,48.4,0.3c26.7,0,48.4-0.1,48.4-0.3c0-0.1-21.7-0.3-48.4-0.3
						C152.9,87,131.2,87.1,131.2,87.3"/>
				</defs>
				<clipPath id="SVGID_60_">
					<use xlink:href="#SVGID_59_"  style="overflow:visible;"/>
				</clipPath>
				<defs>
					<filter id="Adobe_OpacityMaskFilter_4_" filterUnits="userSpaceOnUse" x="131.2" y="87" width="96.8" height="0.5">
						<feColorMatrix  type="matrix" values="1 0 0 0 0  0 1 0 0 0  0 0 1 0 0  0 0 0 1 0"/>
					</filter>
				</defs>
				<mask maskUnits="userSpaceOnUse" x="131.2" y="87" width="96.8" height="0.5" id="SVGID_61_">
					<g class="st50">
						<rect x="131.2" y="87" class="st51" width="96.8" height="0.5"/>
						<g class="st0">
							
								<radialGradient id="SVGID_62_" cx="2.485402e-04" cy="283.5" r="0.9998" gradientTransform="matrix(48.2778 0 0 0.3789 179.5681 -20.1419)" gradientUnits="userSpaceOnUse">
								<stop  offset="0" style="stop-color:#FFFFFF"/>
								<stop  offset="7.789840e-03" style="stop-color:#FFFFFF"/>
								<stop  offset="0.2638" style="stop-color:#C9CACF"/>
								<stop  offset="0.7754" style="stop-color:#5E5D61"/>
								<stop  offset="1" style="stop-color:#000000"/>
							</radialGradient>
							<rect x="131.2" y="87" class="st52" width="96.8" height="0.5"/>
						</g>
					</g>
				</mask>
				<g class="st53">
					<g>
						<defs>
							<rect id="SVGID_63_" x="131.2" y="87" width="96.8" height="0.5"/>
						</defs>
						<clipPath id="SVGID_64_">
							<use xlink:href="#SVGID_63_"  style="overflow:visible;"/>
						</clipPath>
						<g class="st54">
							<defs>
								<rect id="SVGID_65_" x="131.2" y="87" width="96.8" height="0.5"/>
							</defs>
							<clipPath id="SVGID_66_">
								<use xlink:href="#SVGID_65_"  style="overflow:visible;"/>
							</clipPath>
							
								<radialGradient id="SVGID_67_" cx="2.485402e-04" cy="283.5" r="0.9998" gradientTransform="matrix(48.2778 0 0 0.3789 179.5681 -20.1419)" gradientUnits="userSpaceOnUse">
								<stop  offset="0" style="stop-color:#FEFBDA"/>
								<stop  offset="7.789840e-03" style="stop-color:#FEFBDA"/>
								<stop  offset="1" style="stop-color:#FEFBDA"/>
							</radialGradient>
							<rect x="131.2" y="87" class="st55" width="96.8" height="0.5"/>
						</g>
					</g>
				</g>
			</g>
			<g class="st2">
				<defs>
					<rect id="SVGID_68_" x="0.2" y="-0.2" width="284.5" height="284"/>
				</defs>
				<clipPath id="SVGID_69_">
					<use xlink:href="#SVGID_68_"  style="overflow:visible;"/>
				</clipPath>
				<path class="st56" d="M226.1,84.3c3.6-1.3,6-2.2,7.4-2.8c-0.4-0.8-1.1-1.6-2-2.2c-1.4-1.1-3.2-2.1-5.4-3
					c-13.5,3.7-26.8,5.8-39.8,6.4c-1.1,0-2.2,0.1-3.3,0.1h-3h-3c-1.1,0-2.3-0.1-3.4-0.1c-0.4,0-0.9,0-1.3-0.1
					c-12.6-0.7-25.5-2.8-38.5-6.4c-2.1,0.9-3.9,2-5.4,3c-0.7,0.5-1.2,1-1.6,1.5h-0.1c0,0.3,4,1.9,11.8,4.6
					c8.2,2.9,22.3,4.9,42.3,6.1c20-1.2,34.1-3.2,42.3-6.1C224.1,85,225.1,84.7,226.1,84.3 M154.9,33.2c0-0.5-0.3-0.9-0.9-1.1
					c-11.5,7.5-18.3,22.3-20.5,44.2c13.1,3.5,25.9,5.7,38.5,6.4c0.4,0,0.9,0,1.3,0.1c-1-18.8-1-37.9,0-57.3
					c-3.4,0.3-6.3,1.1-8.6,2.2c-0.7,0.4-1.1,0.9-1.1,1.4c-0.7,19.8-1.2,30.2-1.6,31.2c-0.5,1.5-1.4,2.2-2.8,2.2
					c-1.4,0-2.4-0.7-2.9-2.2C156,59.4,155.6,50.3,154.9,33.2 M179.9,22.9c-2.1-0.1-4.3,0.2-6.4,1v1.5c-1,19.3-1,38.4,0,57.3
					c1.2,0,2.3,0.1,3.4,0.1h3h3c1.1,0,2.2-0.1,3.3-0.1c1.1-18.8,1.1-37.9,0-57.3v-1.5C184.1,23.1,182,22.7,179.9,22.9 M205.7,32.1
					c-0.6,0.2-0.9,0.6-0.9,1.1c-0.6,17.1-1.1,26.2-1.4,27.2c-0.5,1.5-1.4,2.2-2.9,2.2c-1.4,0-2.4-0.7-2.9-2.2
					c-0.3-1-0.8-11.4-1.5-31.2c0-0.5-0.4-1-1.2-1.4c-2.3-1.2-5.1-1.9-8.6-2.2c1.1,19.3,1.1,38.4,0,57.3c13.1-0.6,26.3-2.8,39.8-6.4
					C224,54.4,217.2,39.6,205.7,32.1"/>
				<path class="st57" d="M233.5,81.6c-1.4,0.6-3.8,1.5-7.4,2.8c-0.9,0.3-2,0.7-3.1,1.1c-8.2,2.8-22.3,4.9-42.3,6.1
					c-20-1.2-34.1-3.2-42.3-6.1c-7.8-2.7-11.7-4.2-11.8-4.6c-0.4,0.6-0.6,1.3-0.7,2c0,0.1-0.1,0.3-0.1,0.4
					c-0.1,1.5,3.8,3.3,11.8,5.4c8,2.1,15.4,3.5,22.2,4.4c0.9,0.1,1.9,0.2,2.9,0.3c5.7,0.7,11.4,1,17.2,1c5.8,0,11.5-0.3,17.2-1
					c1-0.1,1.9-0.2,2.9-0.3c5.5-0.7,11.4-1.8,17.7-3.3c1.4-0.3,2.9-0.7,4.4-1c8-2.1,12-3.9,11.8-5.4v-0.4
					C233.8,82.4,233.6,82,233.5,81.6 M204.8,33.2c-1.3-0.8-2.6-1.5-3.9-2.2c-1.6-0.8-3.2-1.4-4.8-1.9c0.7,19.8,1.2,30.2,1.5,31.2
					c0.5,1.5,1.5,2.2,2.9,2.2c1.4,0,2.4-0.7,2.9-2.2C203.7,59.3,204.2,50.3,204.8,33.2 M163.7,29.1c-1.7,0.5-3.3,1.1-4.8,1.9
					c-1.3,0.7-2.6,1.4-4,2.2c0.7,17.1,1.1,26.2,1.4,27.1c0.5,1.5,1.5,2.2,2.9,2.2c1.4,0,2.4-0.7,2.9-2.2
					C162.5,59.3,163,48.9,163.7,29.1"/>
				<path class="st58" d="M164.3,29.1c0,0-0.2,4.1-0.6,10.4c-0.2,3.1-0.4,6.7-0.6,10.6c-0.1,1.9-0.2,4-0.4,6c-0.1,1-0.1,2-0.3,3.1
					c0,0.3-0.1,0.5-0.1,0.8c0,0.3-0.1,0.6-0.2,0.8c-0.2,0.5-0.5,1-0.9,1.4c-0.9,0.8-2.2,0.8-3.2,0.5c-1.1-0.4-1.9-1.4-2.1-2.5
					c-0.3-2-0.4-4-0.5-6c-0.2-3.9-0.4-7.5-0.6-10.6c-0.4-6.2-0.6-10.4-0.6-10.4c0-0.3,0.2-0.6,0.6-0.7c0.3,0,0.6,0.2,0.7,0.6v0
					c0,0,0.1,4.1,0.2,10.4c0.1,1.6,0.1,3.2,0.2,5c0.1,1.8,0.1,3.7,0.2,5.6c0.1,1.9,0.2,3.9,0.4,5.9c0.2,0.9,0.8,1.8,1.7,2
					c0.9,0.3,2,0.2,2.6-0.4c0.7-0.6,1-1.6,1-2.6c0.1-1,0.2-2,0.2-3.1c0.1-2,0.2-4,0.3-6c0.2-3.9,0.3-7.5,0.4-10.6
					c0.1-6.2,0.2-10.4,0.2-10.4c0-0.3,0.3-0.6,0.6-0.6C164.1,28.5,164.3,28.8,164.3,29.1L164.3,29.1"/>
				<path class="st58" d="M205.4,33.2c0,0-0.2,4.1-0.6,10.4c-0.2,3.1-0.4,6.7-0.6,10.6c-0.1,2-0.2,3.9-0.5,6c-0.2,1-1,2.1-2.1,2.5
					c-0.5,0.2-1.2,0.2-1.7,0.1c-0.6-0.1-1.1-0.3-1.6-0.7c-0.9-0.7-1.2-2-1.3-3c-0.1-1.1-0.2-2.1-0.2-3.1c-0.1-2-0.2-4-0.3-6
					c-0.2-3.9-0.4-7.5-0.5-10.6l-0.6-10.4c0-0.3,0.2-0.6,0.6-0.6c0.3,0,0.6,0.2,0.7,0.6c0,0,0,0,0,0c0,0,0.1,4.1,0.2,10.4
					c0.1,3.1,0.2,6.7,0.3,10.6c0.1,1.9,0.2,3.9,0.3,6c0.1,1,0.1,2,0.2,3c0,0.2,0,0.5,0.1,0.8l0.1,0.4c0,0.1,0.1,0.2,0.1,0.3
					c0.2,0.4,0.4,0.9,0.8,1.1c0.3,0.3,0.8,0.5,1.2,0.6c0.5,0.1,1,0,1.4-0.1c0.4-0.1,0.8-0.4,1.1-0.8c0.2-0.2,0.2-0.4,0.4-0.6
					c0.1-0.3,0.2-0.5,0.2-0.7c0.3-1.9,0.3-4,0.5-5.9c0.2-3.9,0.3-7.5,0.4-10.6c0.1-3.1,0.1-5.7,0.2-7.5c0-1.8,0.1-2.8,0.1-2.8
					c0-0.3,0.3-0.6,0.6-0.6C205.1,32.6,205.4,32.8,205.4,33.2L205.4,33.2z"/>
				<path class="st58" d="M226.2,76.9c0,0-1.4,0.3-3.9,0.8c-1.3,0.3-2.8,0.6-4.5,1c-1.7,0.5-3.7,0.7-5.9,1.1c-2.2,0.4-4.5,0.9-7,1.3
					c-2.5,0.3-5.1,0.7-7.9,1c-2.7,0.3-5.6,0.4-8.4,0.7c-2.9,0.3-5.8,0.3-8.7,0.3c-2.9,0-5.9,0-8.8-0.2c-2.9-0.2-5.7-0.5-8.4-0.7
					c-2.7-0.4-5.4-0.7-7.9-1c-0.6-0.1-1.2-0.2-1.9-0.2c-0.6-0.1-1.2-0.2-1.8-0.3c-1.2-0.2-2.3-0.4-3.4-0.6c-2.2-0.4-4.2-0.7-5.9-1.2
					c-1.7-0.4-3.3-0.8-4.5-1c-2.5-0.6-3.9-0.9-3.9-0.9c-0.3-0.1-0.5-0.4-0.5-0.7c0.1-0.3,0.4-0.5,0.7-0.5c0,0,0,0,0,0l0,0
					c0,0,1.4,0.4,3.9,1c1.2,0.3,2.7,0.7,4.5,1.2c1.7,0.5,3.7,0.8,5.8,1.3c1.1,0.2,2.2,0.4,3.4,0.7c0.6,0.1,1.2,0.2,1.8,0.4
					c0.6,0.1,1.2,0.2,1.8,0.3c2.5,0.4,5.1,0.7,7.8,1.1c2.7,0.2,5.6,0.5,8.4,0.7c2.9,0.2,5.8,0.3,8.7,0.3c2.9,0,5.8,0,8.7-0.3
					c2.9-0.2,5.7-0.4,8.4-0.7c2.7-0.4,5.3-0.7,7.8-1.1c2.5-0.3,4.8-0.9,7-1.3c2.1-0.4,4.1-0.8,5.8-1.3c1.7-0.5,3.2-0.9,4.5-1.2
					c2.5-0.7,3.9-1.1,3.9-1.1c0.3-0.1,0.7,0.1,0.8,0.4C226.8,76.4,226.6,76.8,226.2,76.9C226.3,76.9,226.3,76.9,226.2,76.9"/>
				<path class="st58" d="M174,25.5c0,0-0.2,3.6-0.5,8.9c-0.1,1.3-0.1,2.8-0.2,4.3c-0.1,1.5-0.1,3.2-0.1,4.8
					c-0.1,3.4-0.2,6.9-0.2,10.5c0.1,3.6,0.1,7.2,0.2,10.5c0,1.7,0,3.3,0.1,4.8c0.1,1.5,0.1,3,0.2,4.3c0.3,5.4,0.5,8.9,0.5,8.9v0
					c0,0.3-0.2,0.6-0.6,0.6c-0.3,0-0.6-0.2-0.7-0.6v0c0,0-0.1-3.6-0.2-9c-0.1-1.3-0.1-2.8-0.2-4.3c-0.1-1.5,0-3.2-0.1-4.8
					c0-3.4-0.1-6.9-0.1-10.5c0.1-3.6,0.1-7.2,0.1-10.5c0-1.7,0-3.3,0.1-4.8c0.1-1.5,0.1-3,0.2-4.3c0.2-5.4,0.2-9,0.2-9
					c0-0.3,0.3-0.6,0.6-0.6C173.8,24.8,174.1,25.1,174,25.5L174,25.5"/>
				<path class="st58" d="M186.9,25.4c0,0,0.1,3.6,0.2,9c0,1.3,0.1,2.8,0.1,4.3c0.1,1.5,0,3.2,0.1,4.8c0,3.4,0.1,6.9,0.1,10.5
					c0,3.6-0.1,7.2-0.1,10.5c0,1.7,0,3.3,0,4.8c0,1.5-0.1,3-0.1,4.3c-0.1,5.4-0.2,9-0.2,9c0,0.3-0.3,0.6-0.6,0.6
					c-0.3,0-0.6-0.3-0.6-0.6v0v0c0,0,0.2-3.6,0.6-8.9c0.1-1.3,0.2-2.8,0.2-4.3c0.1-1.5,0.1-3.2,0.1-4.8c0.1-3.4,0.1-6.9,0.2-10.5
					c-0.1-3.6-0.1-7.2-0.2-10.5c0-1.7,0-3.3-0.1-4.8c-0.1-1.5-0.2-3-0.2-4.3c-0.3-5.4-0.6-8.9-0.6-8.9c0-0.3,0.2-0.6,0.6-0.7
					C186.6,24.8,186.8,25.1,186.9,25.4L186.9,25.4"/>
				<path class="st59" d="M147.3,44.8c0.3-0.5,0.4-0.9,0.4-1.4c0-1.3-0.5-1.8-1.5-1.5c-1,0.3-1.5,1.1-1.5,2.5c0,0,0,0.3,0.1,0.7
					c0.2,0.4,0.5,0.6,1.1,0.6C146.5,45.6,147,45.3,147.3,44.8 M152,41c0.5-0.8,0.7-1.4,0.7-2c0-2.4-0.7-3-2.2-1.9
					c-1.5,1.1-2.2,2.3-2.2,3.8c0,0,0,0.3,0.1,0.8c0.2,0.5,0.6,0.7,1.3,0.7C150.6,42.5,151.4,42,152,41 M215.2,47
					c0.2-0.3,0.3-0.6,0.3-0.9c0-0.7-0.5-1.5-1.6-2.2c-1.1-0.7-1.7-0.4-1.7,1.1l0.5,1.3c0.5,0.8,1,1.2,1.5,1.2
					C214.7,47.5,215,47.3,215.2,47 M210.7,41.5c0.1-0.2,0.1-0.7,0.1-1.4c0-1.7-0.7-2.8-2-3.1c-1.4-0.3-2.1,0.5-2.1,2.6v1.5
					c0.3,0.9,1,1.4,2.2,1.4C209.8,42.5,210.4,42.2,210.7,41.5 M192.8,29.5c-0.3-0.7-0.9-1-1.9-1c-0.9,0-1.6,0.4-2,1.1
					c-0.3,0.5-0.4,0.9-0.4,1.5c0,0.4,0.1,0.9,0.4,1.5c0.5,0.9,1.1,1.4,1.9,1.4c0.7,0,1.3-0.5,1.7-1.4c0.3-0.6,0.4-1.2,0.4-1.8
					C192.9,30.2,192.9,29.8,192.8,29.5 M179.7,38.6c1.1,0,1.7-0.4,1.7-1.2c0-0.6-0.7-1.2-2-1.7c-1.4-0.5-2-0.1-2,1.2
					C177.3,38,178.1,38.6,179.7,38.6 M170.2,33.2c0.2-0.6,0.4-1.2,0.4-1.8c0-2.1-0.8-3-2.5-2.7c-1.7,0.3-2.5,1.3-2.5,2.9
					c0,0,0,0.5,0.1,1.5c0.3,1,1.1,1.5,2.3,1.5C169.1,34.7,169.8,34.2,170.2,33.2 M178.7,34.8c3,0,4.5-1.5,4.5-4.6
					c0-2.3-1.2-3.6-3.5-4c-2.4-0.4-3.6,1.1-3.6,4.4c0,0,0,0.7,0.1,2.1C176.4,34.1,177.2,34.8,178.7,34.8"/>
				<path class="st58" d="M142.5,7.8c74,0,134.2,60.1,134.2,134s-60.2,134-134.2,134c-74,0-134.2-60.1-134.2-134S68.5,7.8,142.5,7.8
					 M142.5-0.3C63.9-0.3,0.2,63.3,0.2,141.7c0,78.4,63.7,142,142.3,142c78.6,0,142.2-63.6,142.2-142
					C284.7,63.3,221.1-0.3,142.5-0.3"/>
				<path class="st58" d="M158.5,224.6C158.5,224.6,158.6,224.6,158.5,224.6c0.2,0,0.4-0.1,0.6,0.1c-1,2.1-2.7,5.1-4.1,6
					c-1.4,6.6-3.5,13.6-7.4,13.2c-1.1-0.1-1.9-1.2-1.9-2.6c0-0.3,0-0.7,0.1-1.1c1-3.7,3.5-6.2,6.3-8.6c0.2-1.1,0.5-2.3,0.8-3.8
					l-0.2,0.3c-1.3,2-2.7,4-4.2,4c-1,0-1.4-0.8-1.4-1.9c0-0.2,0-0.4,0-0.6c0.1-1.3,0.6-3.1,1-4.6c0.3-1.2,0.6-2.4,0.7-3
					c0-0.3,0-0.5-0.1-0.7c0-0.1,0-0.1,0-0.2c0-0.3,0.3-0.4,0.5-0.4c0.4,0,0.9,0.1,1.1,0.3c0.6,0.4,0.8,1.2,0.7,1.9
					c-0.1,0.8-0.3,1.5-0.5,2.1l-0.1,0.3c-0.4,1.2-1.1,3.4-1.2,4.6c0,0.4,0,0.8,0.2,0.8c0.7,0,2.7-3.3,3.6-4.9v0
					c0.1-0.1,0.2-0.2,0.2-0.4l0,0c0.3-1.5,0.5-2.6,0.5-3c0-0.3,0-0.6-0.1-0.8c0-0.1,0-0.2,0-0.3c0-0.3,0.3-0.3,0.6-0.4
					c1.3,0,1.8,0.6,1.9,1.5c-0.2,2-0.4,4-1,7C156.4,228.6,157.6,226.3,158.5,224.6L158.5,224.6z M147.3,242.1
					c0.5-0.1,0.9-0.4,1.3-0.9c1.2-1.5,2.1-4.5,2.8-6.7c0.1-0.4,0.2-0.7,0.3-1v0l0.2-0.6c-1.4,1.1-2.7,2.5-3.8,4.1
					c-0.4,0.7-1.5,2.9-1.5,4.2C146.6,241.7,146.8,242.1,147.3,242.1"/>
				<path class="st58" d="M157.8,227.1c0-0.3,0-0.6,0-0.8c0.1-0.9,0.2-1.8,0.4-2.4c0.4-0.5,1-0.7,1.5-0.7c0.3,0,0.7,0.1,1,0.2
					c0.2-2.1,0.9-4.4,3.3-4.4c2,0,2.8,1.7,2.8,3.9c0,0.3,0,0.6,0,0.9v0c-0.1,1.5-0.7,3.3-1.4,4.7c1.5-0.3,2.4-1.9,3.1-3.3l0.3-0.6
					c0.1,0,0.2-0.1,0.3-0.1c0.1,0,0.2,0.1,0.3,0.3c-0.7,1.6-2.2,4.4-4.5,4.6c-1,1.6-2.4,2.6-4,2.6
					C158.5,232,157.8,229.3,157.8,227.1 M160.8,225.4c-0.1,0.3-0.1,0.7-0.1,1c0,0.3,0,0.6,0,0.9c0,1.5,0.3,2.9,1.4,2.9
					c0.7,0,1.3-0.3,1.8-1C161.8,228.7,161,227.3,160.8,225.4 M164.4,228.4c0.8-1.3,1.3-3,1.5-4.6c0-0.3,0-0.5,0-0.8
					c0-1.7-0.6-3.1-1.9-3.1c-0.9,0-1.4,1.4-1.5,3.1c0,0.4-0.1,0.8-0.1,1.3C162.4,226,162.8,228.1,164.4,228.4"/>
				<path class="st58" d="M186.7,224.7c0.2-0.2,0.4-0.1,0.6,0.1c-0.6,1.4-1.8,2.6-3.3,2.9c-0.5,0.1-1.1,0-1.7-0.3
					c-0.4,0.9-0.9,1.7-1.3,2.3c-0.7,1.2-1.7,2.5-3.3,2.5c-1.4,0-1.8-1.6-1.8-3.5c0-1.6,0.3-3.4,0.4-4.7c0.1-0.9,0.2-1.5,0.2-1.8
					c0-0.3-0.1-0.5-0.2-0.6c0-0.1-0.1-0.1-0.1-0.2c0-0.3,0.2-0.4,0.5-0.4c0.4-0.1,0.9,0,1.1,0.1c0.6,0.3,0.9,1.1,1,1.8
					c0,0.8-0.1,1.8-0.2,2.4c-0.2,0.9-0.4,2.3-0.5,3.5c0,0,0,0.1,0,0.1c0,0.2,0,0.4,0,0.7c0,0.6,0.1,1.2,0.6,1.3
					c0.6,0.1,1.2-0.7,1.5-1.3c0.4-0.6,0.9-1.5,1.4-2.5c-0.5-0.7-0.8-1.9-0.8-3c0-2.7,1.3-5.9,3.2-5.7c0.9,0.1,1.2,0.6,1.2,1.5
					c0,1.4-0.8,3.4-1.7,5.3l-0.8,1.7c0.3,0.3,0.7,0.4,1,0.4c0.1,0,0.3,0,0.4-0.1C185.2,226.6,186.2,225.7,186.7,224.7L186.7,224.7z
					 M182.1,224.8c0,0.5,0,0.9,0.2,1.2l0.6-1.2c0.7-1.5,1.8-3.9,1.8-5.1c0-0.5-0.1-0.8-0.5-0.9C183,218.5,182.1,222.5,182.1,224.8"
					/>
				<path class="st58" d="M194,225c0,0.1-0.3,0.1-0.4,0.1c-0.1,0-0.2-0.1-0.3-0.2c0.1-0.2,0.1-0.4,0.1-0.6c0-1-0.4-2.3-1.5-2.3
					c-2.1,0-4.5,5.5-4.6,7.2c0,0.6,0,1.4,0.7,1.4c1.3,0,2.9-2.9,3.6-4.3c0.1-0.2,0.2-0.5,0.2-0.9c0-0.3,0.3-0.3,0.6-0.4
					c1.2,0.1,1.6,0.6,1.6,1.2c0.1,0.6-0.2,1.4-0.3,2.1c-0.1,0.4-0.5,2.8,0.3,2.1c1-1,2.2-3.2,3-4.7c0.2-0.5,0.5-0.9,0.6-1.2
					c0.1,0,0.2,0,0.2,0c0.2,0,0.3,0.1,0.4,0.3l-0.1,0.3c-0.8,1.7-2.6,5.2-4,6.4c-0.4,0.3-1,0.6-1.6,0.6c-1.4,0-1.6-2.3-1.4-3.4
					c0,0,0,0,0-0.1c-1.1,1.8-2.6,3.6-4.3,3.6c-1.6,0-2.1-1.2-2.1-2.6c0-0.1,0-0.3,0-0.4c0.4-3,3.3-8.4,6.7-8.4
					c1.8,0,2.8,1.9,2.7,3.5C194.1,224.5,194.1,224.7,194,225L194,225z"/>
				<path class="st58" d="M204.1,217.7c-0.2,2.7-2.5,5.5-4.5,7.4c0,0-0.5,1.8-0.6,3.4c0,0.3,0,0.5,0,0.7c0,1,0.2,1.7,0.9,1.7
					c1.6,0,3.3-3.4,4.2-5.2c0.2-0.5,0.5-1,0.6-1.1c0.1-0.1,0.2-0.1,0.2-0.1c0.2,0,0.3,0.1,0.4,0.3l-0.5,1h0
					c-1.3,2.7-3.1,6.4-5.3,6.4c-2,0-2.5-1.8-2.5-3.5c0-0.3,0-0.6,0-0.8v0c0.2-2.9,2.4-12.3,5.9-12.3
					C203.8,215.5,204.1,216.9,204.1,217.7 M199.9,223.8c0.8-0.7,3.3-3.6,3.5-5.9c0.1-0.5,0-1.3-0.3-1.3
					C202.4,216.7,200.9,219.7,199.9,223.8"/>
				<path class="st58" d="M214.7,224.8c0.2-0.1,0.4-0.2,0.7,0.1c-1,2.1-2.7,5.1-4.1,6c-1.3,6.6-3.5,13.6-7.4,13.2
					c-1.1-0.1-1.9-1.2-1.9-2.6c0-0.3,0-0.7,0.1-1c1-3.7,3.6-6.2,6.3-8.6c0.2-0.8,0.3-1.6,0.5-2.2l0.2-1c-1.1,1.7-2.6,3.4-4.2,3.4
					c-1.6,0-2.1-1.2-2.1-2.5c0-0.1,0-0.3,0-0.5c0.4-3,3.3-8.4,6.7-8.4c1.8,0,2.8,1.8,2.7,3.5c0,0.3-0.1,0.5-0.2,0.8
					c0,0.1-0.3,0.1-0.4,0.1c-0.1,0-0.2-0.1-0.3-0.2c0.1-0.2,0.1-0.4,0.1-0.6c0.1-1-0.4-2.3-1.4-2.3c-2.1,0-4.5,5.5-4.6,7.2
					c-0.1,0.6,0,1.3,0.7,1.3c1.1,0,2.4-2.1,3.3-3.7c0.1-0.2,0.2-0.5,0.3-0.8c0-0.1,0-0.2,0-0.3l-0.1-0.3c0-0.1,0-0.2,0-0.3
					c0-0.3,0.3-0.3,0.6-0.4c1.3,0,1.8,0.6,1.9,1.5c-0.1,1.1-0.2,2.1-0.4,3.3C212.7,228.6,213.9,226.5,214.7,224.8
					C214.7,224.9,214.7,224.9,214.7,224.8 M203.5,242.3c0.5-0.1,0.9-0.4,1.3-0.9c1.2-1.5,2.1-4.5,2.8-6.6l0.3-1l0.1-0.4l0.1-0.2
					c-1.4,1.1-2.7,2.5-3.8,4.1c-0.4,0.7-1.5,2.9-1.5,4.2C202.8,242,203,242.3,203.5,242.3"/>
				<path class="st58" d="M214.2,227.1c0-0.3,0-0.6,0-0.8c0.1-0.9,0.2-1.8,0.4-2.4c0.4-0.5,1-0.7,1.5-0.7c0.3,0,0.7,0.1,0.9,0.2
					c0.2-2.1,0.9-4.4,3.3-4.4c2,0,2.8,1.7,2.8,3.9c0,0.3,0,0.6,0,0.9v0c-0.2,1.5-0.7,3.3-1.4,4.7c1.5-0.3,2.4-1.9,3.1-3.3l0.3-0.6
					c0.1,0,0.2-0.1,0.3-0.1c0.1,0,0.2,0.1,0.3,0.3c-0.7,1.6-2.2,4.4-4.5,4.6c-1,1.6-2.4,2.6-4,2.6
					C214.9,232,214.2,229.3,214.2,227.1 M217.1,225.4c-0.1,0.3-0.1,0.7-0.1,1c0,0.3,0,0.6,0,0.9c0,1.5,0.3,2.9,1.4,2.9
					c0.7,0,1.2-0.3,1.8-1C218.1,228.7,217.3,227.3,217.1,225.4 M220.8,228.4c0.8-1.3,1.3-3,1.5-4.6c0-0.3,0-0.5,0-0.8
					c0-1.7-0.6-3.1-1.9-3.1c-0.9,0-1.4,1.4-1.5,3.1c0,0.4-0.1,0.8-0.1,1.3C218.8,226,219.1,228.1,220.8,228.4"/>
				<polygon class="st58" points="225.8,229.6 228,229.6 226.6,233.9 224.7,233.9 				"/>
				<path class="st58" d="M67.6,221.4c0.3-0.3,0.6-0.4,0.9,0.2c0,0.5-0.3,1.2-0.7,1.9c-0.6,0.9-1.5,1.5-2.4,1.9
					c-0.7,0.2-1.3,0.3-1.9,0.3c-3,0-4.6-2.9-4.6-5.9c0-0.9,0.1-1.9,0.4-2.7c1.5-4.4,5.4-7.7,9.1-9.6c2.3-1.2,5.2-1.9,7.6-1.9
					c2.3,0,4.4,0.5,6.1,1.6c2.7,1.9,3.9,4.9,3.9,8.1c0,5.4-3.4,11-8.7,11.8c-0.8,0.1-1.5,0.2-2.3,0.2c-1.3,5-3.3,9.6-7.6,9.6
					c-0.9,0-1.9-0.2-3.1-0.6c-0.4-0.4-0.4-0.7,0.2-0.9c0.5,0.2,1,0.2,1.5,0.2c3,0,4.4-3.1,5.1-6c1.1-4.1,1.7-9.6,2-13.5
					c0-0.4-0.1-0.8-0.2-0.9c0-0.1-0.1-0.2-0.1-0.3c0-0.3,0.3-0.5,0.7-0.5c2.2-0.1,2.6,1.2,2.6,2.5c0,2.6-0.3,5.5-0.9,9
					c3.9,0,6.4-4.5,6.4-9c0-4.3-2.2-8.5-7.6-8.5c-1.4,0-3.1,0.3-4.9,1c-3.8,1.5-7.1,4.6-7.8,8.9c-0.1,0.5-0.1,1-0.1,1.4
					c0,2.4,1.1,4.6,3.5,4.6c0.2,0,0.3,0,0.5,0c0.8-0.1,1.5-0.5,2-1.2C67.2,222.5,67.5,222,67.6,221.4"/>
				<path class="st58" d="M84.8,225.2c0-0.4,0-0.7,0-1c0.1-1.1,0.3-2.2,0.5-2.9c0.5-0.6,1.1-0.8,1.8-0.8c0.4,0,0.8,0.1,1.1,0.3
					c0.3-2.5,1.1-5.3,3.9-5.3c2.3,0,3.3,2.1,3.3,4.7c0,0.4,0,0.7-0.1,1v0c-0.2,1.8-0.8,3.9-1.7,5.6c1.9-0.4,2.8-2.2,3.8-4l0.4-0.7
					c0.1-0.1,0.2-0.1,0.3-0.1c0.1,0,0.3,0.1,0.3,0.4c-0.8,1.9-2.6,5.3-5.4,5.5c-1.2,1.8-2.9,3.1-4.8,3.1
					C85.7,231,84.8,227.7,84.8,225.2 M88.4,223.1c-0.1,0.4-0.1,0.8-0.1,1.2c0,0.4-0.1,0.8-0.1,1.1c0,1.8,0.4,3.4,1.7,3.4
					c0.8,0,1.5-0.4,2.2-1.1C89.6,227,88.6,225.3,88.4,223.1 M92.7,226.7c0.9-1.5,1.6-3.6,1.8-5.5c0-0.3,0-0.6,0-0.9
					c0-2.1-0.7-3.7-2.3-3.7c-1.1,0-1.6,1.7-1.8,3.6c0,0.4-0.1,1-0.1,1.5C90.3,223.8,90.7,226.4,92.7,226.7"/>
				<path class="st58" d="M108.7,233.4c0.2-1.3,0.4-2.8,0.6-4.2c0.1-0.4,0.1-0.6,0.2-1.3c-1.2,1.7-2.7,3.1-4.4,3.1
					c-1.9,0-2.5-1.4-2.5-3c0-0.1,0-0.4,0-0.5c0.5-3.6,3.9-10.1,8-10.1c2.1,0,3.3,2.2,3.2,4.2c0,0.3-0.1,0.6-0.2,0.9
					c-0.1,0.1-0.4,0.2-0.5,0.2c-0.1,0-0.3-0.1-0.4-0.2c0.1-0.3,0.1-0.5,0.2-0.7c0.1-1.2-0.4-2.7-1.7-2.7c-2.6,0-5.3,6.5-5.5,8.6
					c-0.1,0.7,0,1.6,0.9,1.6c1.2,0,2.6-2.1,3.6-3.9h0c0.2-0.7,0.5-1.3,1-1.8v0l0.1-0.2h0.1c0.5-0.3,1.1-0.5,1.8-0.4
					c0.3,0,0.5,0.2,0.5,0.5c0,0-0.1,0.2-0.2,0.4c-0.1,0.2-0.3,0.4-0.4,0.9c-0.3,0.9-0.6,2.9-0.9,5.1l0.1-0.2
					c1.7-3.6,3.4-7.1,3.7-7.9c0.3-0.1,0.6-0.2,0.8,0.4c-0.4,1-2.7,5.8-4.6,9.9c-0.1,0.3-0.3,0.6-0.4,0.9v0c-0.3,2.2-0.7,4.2-1,5.5
					c-0.5,1.8-1.8,3.9-3.7,3.7c-0.2,0-0.4-0.1-0.3-0.3c0,0,0.1-0.1,0.2-0.3c0.2-0.3,0.6-0.9,0.8-1.8c0.4-1.4,0.7-2.7,0.8-3.8
					L108.7,233.4z"/>
				<path class="st58" d="M119.1,220.1c-0.1,1-0.5,2.2-0.7,2.9c-0.4,1.4-1.2,4.1-1.4,5.5c0,0.5,0,1,0.2,1c1,0,3.6-4.5,4.7-6.2l0,0
					c0.5-1.5,0.8-2.4,1-3.9c0-0.2,0-0.4-0.1-0.6c0-0.1,0-0.3,0-0.3c0-0.5,0.3-0.6,1.2-0.6c1.1,0,1.4,1,1.3,2
					c-0.1,1.3-0.6,3.1-1.1,4.6c-0.4,1.4-0.9,2.7-0.9,3.6c-0.1,0.5,0,1.4,0.4,1.4c1.1,0,4.5-6.7,4.7-7l0.1-0.1h0
					c0.1-0.2,0.2-0.4,0.4-0.4c0.2,0,0.4,0.1,0.5,0.3c-0.2,0.3-0.4,0.7-0.6,1.1c-1.4,2.8-3.7,7.5-6,7.5c-1.7,0-2.2-1-2.2-2.4v-0.5
					c0-0.4,0.1-0.8,0.2-1.2c0,0-0.1,0.1-0.1,0.1c-1.3,1.9-2.6,4.1-4.6,4.1c-1.2,0-1.7-0.9-1.7-2.3c0-0.2,0-0.5,0-0.7
					c0.1-1.6,0.7-3.7,1.2-5.5c0.4-1.4,0.8-2.8,0.8-3.6c0-0.4,0-0.6-0.1-0.8v0c0-0.1,0-0.2,0-0.3c0-0.3,0.3-0.4,0.7-0.4
					c0.5,0,1,0.2,1.3,0.3C119,218.2,119.2,219.1,119.1,220.1"/>
				<path class="st58" d="M130.9,231.5c-2.5,0-3.4-2.3-3.4-4.7c0-0.3,0-0.6,0-0.9v0c0.3-4,3-8.8,6.3-8.8c2.1,0,3.4,2,3.3,3.9
					c-0.3,2.7-3.5,4.5-6,5c-0.1,0.4-0.1,0.8-0.2,1.3c0,0.2,0,0.4,0,0.6c0,1,0.3,2,1.5,2.1c1.8-0.1,3.3-2.5,4.2-4v0
					c0.6-1,1.1-2,1.5-2.8c0.2-0.4,0.5-0.9,0.6-1.2c0.1-0.1,0.2-0.1,0.3-0.1c0.2,0,0.3,0.1,0.4,0.3l-0.2,0.4
					c-0.4,0.9-1.1,2.2-1.9,3.5C136.1,228.5,134.3,231.5,130.9,231.5 M135.3,219.2c-1.4,0-3.6,4.3-4,5.8c1.6-0.2,4.7-1.8,4.9-3.9
					c0.1-0.4,0-0.9-0.3-1.4C135.8,219.3,135.6,219.2,135.3,219.2"/>
				<path class="st58" d="M103.8,232.4c-0.4,0-0.9,0.1-1.3,0.3c-0.1,0-0.4,0.1-0.5,0.2c-0.1,0.2,0.1,0.5,0.2,0.7
					c0.1,0.1,0.2,0.2,0.3,0.3c0.1,0.1,0.2,0.1,0.3,0c0.2-0.1,0.4-0.1,0.6-0.1c0.8,0,1.2,0.6,1.2,1.5c0,1.3-1,3.1-3.1,3.3
					c-0.1,0-0.1,0-0.2,0c0,0,0,0-0.1,0c-0.9,0-1.5-0.6-1.9-1.4c0-0.1-0.1-0.2-0.1-0.2c0-0.1-0.1-0.2-0.1-0.3c0-0.1,0-0.1-0.1-0.2
					c0-0.2-0.1-0.4-0.1-0.6c-0.1-2.3,1.1-5.2,1.1-5.2c0.4-1.4,0.9-2.8,1.4-4.1c0.1-0.2,0.2-0.5,0.3-0.7c0.5-1.2,1.3-3.2,1.3-4.3
					c0-0.5-0.1-0.8-0.5-0.9c-0.3-0.1-0.6-0.1-1.1-0.1c-0.2,0-0.4,0-0.6,0c-0.2,0-0.4,0-0.6,0c-0.3,0-0.7,0-1-0.1
					c0-0.1,0-0.1,0.1-0.2c0.3-0.7,0.8-2.2,0.9-3.4c0.1-1.2-0.4-1.9-1.4-1.9c-1.8,0-3,1.8-3.1,3.5c-0.1,1.5,0.5,2.9,2.3,3
					c-0.4,0.8-0.8,1.6-1.2,2.4c0.1,0.1,0.3,0.1,0.8,0.2l1.2-2.5c0.2,0,0.5,0,0.7,0c0.2,0,0.3,0,0.6,0c-0.2,0.5-0.4,1-0.6,1.5
					c-1,2.5-2.3,5.8-3.1,10.2l-0.3,1.5c-0.3,3.9,2.1,5,4.6,5c0.4,0,0.8,0,1.1-0.1c2.9-0.7,4.5-2.6,4.5-4.2
					C106.6,233.8,105.5,232.4,103.8,232.4 M98.7,220.1c-0.4-0.1-0.6-0.4-0.5-0.9c0.1-1,1.1-2.5,1.5-2.5c0.1,0,0.1,0.1,0.1,0.4
					C99.6,218,98.9,219.7,98.7,220.1"/>
				<path class="st60" d="M114.4,250C114.4,250,114.4,250,114.4,250c-1,0-2.6,2.6-3.8,4.6c-0.4,0.7-0.8,1.3-1.1,1.7l0,0
					c-0.3,0.9-0.6,1.8-0.6,2.6c0,0.5,0,1.1,0.3,1.6c0,0,0,0.1,0,0.2c0,0.2-0.1,0.2-0.4,0.2c-1.5,0-2-1-2-2.3c0-0.1,0-0.3,0-0.5
					c0.2-1.6,1-3.8,1.6-5.4c0.4-1.1,0.8-2,0.8-2.5c0-0.2,0-0.3-0.1-0.3c-1.1,0-3.4,4-4.3,5.5v0l-0.3,0.4h0c-0.3,0.8-0.6,2-0.7,3
					c0,0.7,0.1,1.3,0.1,1.5c0,0.1,0.1,0.2,0.1,0.2c0,0.2-0.2,0.2-0.4,0.2c-1.5,0-1.9-1.3-1.9-2.6c0-0.2,0-0.4,0-0.6
					c0.1-1.4,0.5-2.9,0.8-4.2c0.3-1.1,0.5-2.2,0.6-2.9c0-0.3,0-0.6-0.1-0.8c0-0.1,0-0.2,0-0.3c0-0.3,0.3-0.4,0.6-0.4
					c1.6,0,1.9,1.1,1.8,2.2c0,0.6-0.2,1.1-0.3,1.6c-0.1,0.4-0.1,0.4-0.2,0.7c0.3-0.4,0.5-0.8,0.8-1.2c1.1-1.7,2.4-3.7,4-3.7
					c1.2,0,1.5,0.9,1.4,1.9c-0.1,0.7-0.3,1.6-0.6,2.5c0.1-0.2,0.2-0.3,0.3-0.5c1.1-1.8,2.4-3.8,4.1-3.8c1.1,0,1.4,0.8,1.4,1.9
					c-0.1,1.2-0.6,2.7-1.1,4.1c-0.5,1.3-0.9,2.7-1,3.6c0,0.4,0,1.2,0.4,1.2c0.9,0,3.6-5.1,4-6c0,0,0-0.1,0-0.1l0-0.1h0
					c0.1-0.2,0.2-0.3,0.4-0.3c0.2,0,0.3,0.1,0.4,0.3l-0.5,0.9c-1.2,2.5-3.3,6.6-5.2,6.6c-1.4,0-1.9-0.9-1.9-2.1c0-0.1,0-0.3,0-0.5
					c0.2-1.6,1-3.8,1.6-5.4c0.4-1.1,0.8-2,0.8-2.5C114.5,250.1,114.4,250,114.4,250"/>
				<path class="st60" d="M121,261c-2.2,0-2.9-1.9-2.9-4.1c0-0.3,0-0.5,0-0.8v0c0.3-3.5,2.6-7.6,5.4-7.6c1.8,0,2.9,1.7,2.8,3.3
					c-0.3,2.3-3.1,3.9-5.1,4.4c-0.1,0.3-0.1,0.7-0.2,1.1c0,0.2,0,0.4,0,0.5c0,0.9,0.2,1.8,1.3,1.8c1.6,0,2.8-2.1,3.6-3.5v0
					c0.5-0.8,0.9-1.7,1.3-2.4c0.2-0.3,0.4-0.7,0.6-1c0.1,0,0.2-0.1,0.2-0.1c0.2,0,0.3,0.1,0.4,0.3l-0.2,0.3c-0.4,0.8-0.9,1.9-1.6,3
					C125.4,258.4,123.9,261,121,261 M124.8,250.4c-1.2,0-3.1,3.7-3.4,5c1.4-0.2,4-1.5,4.2-3.4c0-0.4,0-0.8-0.2-1.2
					C125.2,250.5,125,250.4,124.8,250.4"/>
				<path class="st60" d="M137.5,261c-2.2,0-2.9-1.9-2.9-4.1c0-0.3,0-0.5,0-0.8v0c0.3-3.5,2.6-7.6,5.4-7.6c1.8,0,2.9,1.8,2.8,3.6
					c0,0.4-0.1,1-0.6,1c-0.1,0-0.2-0.1-0.3-0.2c0.1-0.3,0.1-0.6,0.2-0.8c0.1-0.9-0.2-1.8-0.7-1.8c-1.2,0-3.4,4-3.8,6.9
					c0,0.2,0,0.4,0,0.5c0,1,0.3,1.8,1.2,1.8c1.6,0,2.9-2.1,3.7-3.5v0c0.5-0.8,0.9-1.7,1.3-2.4c0.2-0.3,0.4-0.7,0.6-1
					c0.1,0,0.2-0.1,0.2-0.1c0.2,0,0.3,0.1,0.4,0.3l-0.2,0.3c-0.4,0.8-0.9,1.9-1.6,3C141.9,258.4,140.4,261,137.5,261"/>
				<path class="st60" d="M146.9,251.1c-0.1,0.9-0.4,1.9-0.6,2.5c-0.4,1.2-1.1,3.5-1.2,4.7c0,0.5,0,0.8,0.2,0.8c0.8,0,3.1-3.9,4-5.4
					l0,0c0.4-1.3,0.7-2.1,0.8-3.4c0-0.2,0-0.4,0-0.5c0-0.1,0-0.2,0-0.2c0-0.4,0.3-0.5,1-0.5c1,0,1.2,0.8,1.1,1.8
					c-0.1,1.1-0.5,2.6-0.9,4c-0.4,1.2-0.7,2.4-0.8,3.1c0,0.4,0,1.2,0.3,1.2c1,0,3.9-5.7,4.1-6.1l0-0.1h0c0.1-0.2,0.2-0.3,0.4-0.3
					c0.2,0,0.3,0.1,0.4,0.3c-0.1,0.2-0.3,0.6-0.5,1c-1.2,2.4-3.2,6.5-5.1,6.5c-1.4,0-1.9-0.8-1.9-2V258c0-0.3,0.1-0.7,0.2-1
					c0,0,0,0.1-0.1,0.1c-1.1,1.7-2.3,3.5-4,3.5c-1.1,0-1.4-0.8-1.4-2c0-0.2,0-0.4,0-0.6c0.1-1.4,0.6-3.2,1.1-4.8
					c0.3-1.2,0.7-2.4,0.7-3.1c0-0.3,0-0.5-0.1-0.7v0c0-0.1,0-0.2,0-0.2c0-0.3,0.3-0.4,0.6-0.4c0.4,0,0.9,0.2,1.1,0.3
					C146.8,249.5,147,250.3,146.9,251.1"/>
				<path class="st60" d="M155.8,250.4c0-0.2,0-0.3,0-0.4c0-0.1,0-0.2,0-0.3c0.1-0.3,0.4-0.3,0.7-0.2c0.9,0.3,1.2,0.7,1.2,1.2
					c0,0.3-0.1,0.6-0.2,1.1c-0.4,1.3-1.1,3.9-1.3,5.7c0,0.2,0,0.5,0,0.6c0,0.7,0.1,1.2,0.5,1.2c0.9,0,2.7-3.4,3.7-5.3
					c0.3-0.5,0.5-0.9,0.6-1.1c0.1,0,0.2-0.1,0.2-0.1c0.2,0,0.3,0.1,0.4,0.3l-0.2,0.3c-1.2,2.5-3.6,7.2-5.4,7.2
					c-1.4,0-1.9-1.2-1.9-2.8c0-0.3,0-0.5,0-0.8c0.2-2,0.8-4,1.4-5.9L155.8,250.4L155.8,250.4z M158.9,247.5
					c-0.1,0.7-0.7,1.1-1.3,1.1c-0.5,0-0.9-0.4-0.9-1.3c0.1-0.7,0.5-1.4,1.1-1.4c0.3,0,0.6,0.2,0.8,0.5
					C158.8,246.8,158.9,247.2,158.9,247.5"/>
				<path class="st60" d="M165.7,258.1c0-0.2,0-0.4,0-0.6c0-0.3,0-0.3,0.1-0.7c-1.1,1.9-2.8,3.9-4.6,3.9c-1.6,0-2.2-1.2-2.2-2.6
					c0-0.2,0-0.3,0-0.5c0.4-3.1,3.4-8.7,6.9-8.7c0.6,0,1,0.2,1.4,0.5l0.2-0.6c0.4-2,0.9-3.6,0.9-4.2c0-0.3,0-0.6-0.1-0.8
					c0-0.1,0-0.2,0-0.3c0-0.3,0.3-0.4,0.6-0.4c1.6,0,1.9,1.1,1.8,2.2c-0.1,0.9-0.6,3.3-1.2,5.8c-0.1,0.4-0.2,1-0.4,1.7
					c-0.5,1.8-1,4.1-1,5.5c0,0.2,0,0.4,0,0.5c0.1,0.4,0.3,0.6,0.6,0.6c0.5,0,1.2-0.5,1.6-1c1.1-1.2,2-3.1,2.6-4.4
					c0.3-0.6,0.5-1,0.6-1.2c0.1-0.1,0.2-0.1,0.2-0.1c0.2,0,0.3,0.1,0.4,0.3c-0.2,0.4-0.4,0.9-0.6,1.3c-0.7,1.5-1.6,3.3-2.5,4.5
					c-0.7,0.9-1.6,1.8-2.8,1.9C166.4,260.8,165.7,259.8,165.7,258.1 M166.2,254.5c0.2-1,0.5-2.2,0.7-3.3c0-0.2,0.1-0.4,0.2-0.6
					c-0.2-0.2-0.4-0.2-0.7-0.2c-2.2,0-4.6,5.6-4.8,7.4c-0.1,0.6,0,1.4,0.7,1.4C163.8,259.2,165.5,255.9,166.2,254.5L166.2,254.5z"/>
				<path class="st60" d="M172.7,255.5c0-0.3,0-0.6,0-0.9c0.1-1,0.2-1.9,0.5-2.5c0.4-0.5,1-0.7,1.6-0.7c0.3,0,0.7,0.1,1,0.2
					c0.2-2.2,0.9-4.6,3.4-4.6c2,0,2.9,1.8,2.9,4.1c0,0.3,0,0.6,0,0.9v0c-0.2,1.6-0.7,3.4-1.5,4.9c1.6-0.3,2.5-1.9,3.2-3.4l0.3-0.6
					c0.1,0,0.2-0.1,0.3-0.1c0.1,0,0.2,0.1,0.3,0.3c-0.7,1.7-2.2,4.6-4.6,4.7c-1.1,1.6-2.5,2.7-4.1,2.7
					C173.5,260.5,172.7,257.7,172.7,255.5 M175.8,253.8c-0.1,0.3-0.1,0.7-0.1,1c0,0.3,0,0.6,0,1c0,1.5,0.4,3,1.4,3
					c0.7,0,1.3-0.3,1.9-1C176.8,257.1,176,255.7,175.8,253.8 M179.5,256.9c0.8-1.3,1.4-3.1,1.5-4.8c0-0.3,0-0.5,0-0.8
					c0-1.8-0.6-3.2-2-3.2c-1,0-1.4,1.5-1.6,3.1c0,0.4-0.1,0.8-0.1,1.3C177.5,254.3,177.8,256.6,179.5,256.9"/>
				<path class="st60" d="M160.4,267.9c-0.6-2.4-2.3-3.6-4.5-3.9c-8.4-1.1-19,4.3-27.1,3.9c-0.4,0-1.6,0-1.9-0.5
					c-0.1-0.2-0.1-0.3-0.3-0.3c-0.3,0-0.3,0.4-0.2,0.6c0.4,0.9,2.7,1.3,3.6,1.5c3.1,0.5,6.5-0.5,9.9-1.1l3.1-0.5
					c1.8-0.3,3-0.6,4.8-0.9c4.3-0.8,10.8-2.6,10.6,1.6c-0.1,1.4-1.2,3.4-2.9,3.5c-1.5,0-2.4-2.3-2.4-3.1c-0.1-0.1-0.4-0.3-0.7,0.2
					c0,1.7,1.3,3.6,3.3,3.9c0.4,0.1,0.9,0.1,1.3,0C159.2,272.2,160.6,269.9,160.4,267.9"/>
			</g>
		</g>
	</g>
</g>
</svg>
