<?xml version="1.0" encoding="utf-8"?>
<!-- Generator: Adobe Illustrator 21.1.0, SVG Export Plug-In . SVG Version: 6.00 Build 0)  -->
<svg version="1.1" id="Pagina_inicia_Movil" xmlns="http://www.w3.org/2000/svg" xmlns:xlink="http://www.w3.org/1999/xlink"
	 x="0px" y="0px" viewBox="0 0 62.2 62.2" style="enable-background:new 0 0 62.2 62.2;" xml:space="preserve">
<style type="text/css">
	.st0{fill:#12AFAF;}
	.st1{fill:#FFFFFF;}
</style>
<title>servicio-1</title>
<circle class="st0" cx="31.1" cy="31.1" r="31.1"/>
<path class="st1" d="M12.8,32.8v-3.3c-0.1-0.1-0.1-0.3,0-0.4l0.2-0.2l2.8-0.4l0.6-1.4L14.8,25c-0.1-0.1-0.1-0.3-0.1-0.4
	c0-0.1,0-0.3,0.1-0.4l1.5-1.6c0.4-0.5,0.8-0.9,1.4-1.1h0.4l2.1,1.6l1.4-0.6c0.1-1,0.2-2,0.4-3c0-0.3,0.2-0.6,0.5-0.7h3.4l0.4,0.4
	c0.1,0.1,0.2,0.3,0.2,0.5l0.4,2.8l1.4,0.6l2.1-1.6h0.7c1.7,1.6,2.6,2.5,2.6,2.9c0,0.1,0,0.3-0.1,0.4l-0.8,1L32,26.9l0.6,1.5l2.7,0.4
	l0.4,0.2l0.2,0.4v3.3l-0.2,0.4l-0.4,0.2l-2.8,0.4c-0.2,0.5-0.4,1-0.6,1.4l1.6,2.1c0.1,0.1,0.1,0.3,0.1,0.4c0,0.1,0,0.3-0.1,0.4
	L32,39.6c-0.4,0.5-0.8,0.9-1.4,1.1h-0.4l-2.1-1.6l-1.4,0.6c-0.1,1.3-0.3,2.4-0.4,3c-0.1,0.3-0.2,0.5-0.5,0.6h-3.3l-0.4-0.4l-0.2-0.4
	l-0.4-2.8l-1.4-0.6L18,40.7h-0.7c-1.7-1.6-2.6-2.5-2.6-2.9c0-0.1,0-0.3,0.1-0.4l0.7-0.9l0.8-1.1c-0.2-0.5-0.4-1-0.6-1.5L13,33.5
	l-0.2-0.2C12.8,33.1,12.8,33,12.8,32.8z M35.7,23.8c-1.8-0.2-2.9-0.4-2.9-0.6v-2.5c0-0.2,1.1-0.4,2.9-0.6l0.7-0.9
	c-0.4-0.8-0.7-1.6-0.9-2.5h0.1l0.6-0.4l1.1-0.6l0.5-0.3c0.3,0.2,0.6,0.5,0.8,0.8l0.9,1.2h1.1l1.7-2h0.1l2.2,1.2h0.1
	c-0.2,0.9-0.5,1.7-0.9,2.5l0.4,0.9c1.8,0.2,2.5,0.4,2.5,0.6v2.5c0,0.2-0.7,0.4-2.5,0.6l-0.5,0.9c0.4,0.8,0.8,1.6,1,2.5h-0.1
	l-2.2,1.3c-0.3-0.2-0.6-0.5-0.8-0.8l-0.9-1.2h-1.1l-0.9,1.2c-0.2,0.3-0.5,0.6-0.8,0.8l-2.2-1.3h-0.1c0.1-0.9,0.4-1.7,0.8-2.5
	l-0.6-0.9h-0.1L35.7,23.8z M35.7,42.2c-1.8-0.2-2.9-0.4-2.9-0.6v-2.5c0-0.2,1.1-0.4,2.9-0.6l0.7-0.9c-0.4-0.8-0.7-1.6-0.9-2.5h0.1
	l0.6-0.4l1.1-0.6l0.5-0.3c0.3,0.2,0.6,0.5,0.8,0.8l0.9,1.2h1.1l1.7-2h0.1l2.2,1.2h0.1c-0.2,0.9-0.5,1.7-0.9,2.5l0.4,0.9
	c1.8,0.2,2.5,0.4,2.5,0.6v2.5c0,0.2-0.7,0.4-2.5,0.6L43.7,43c0.4,0.8,0.8,1.6,1,2.5h-0.1l-2.2,1.3c-0.3-0.2-0.6-0.5-0.8-0.8
	l-0.9-1.2h-1.1L38.7,46c-0.2,0.3-0.5,0.6-0.8,0.8l-2.2-1.3h-0.1c0.1-0.9,0.4-1.7,0.8-2.5l-0.6-0.9h-0.1L35.7,42.2z M37.9,22
	c0,1.3,1,2.3,2.2,2.4c1.3,0,2.3-1,2.4-2.2c0-1.3-1-2.3-2.2-2.4c-0.6,0-1.2,0.2-1.7,0.6C38.2,20.8,37.9,21.3,37.9,22L37.9,22L37.9,22
	z M37.9,40.4c0,1.3,1,2.3,2.2,2.4c1.3,0,2.3-1,2.4-2.2c0-1.3-1-2.3-2.2-2.4c-0.6,0-1.2,0.2-1.7,0.6C38.2,39.2,37.9,39.7,37.9,40.4
	L37.9,40.4L37.9,40.4z M20.9,31.4c0,2.1,1.6,3.8,3.7,3.9c2.1,0,3.8-1.6,3.9-3.7c0-2.1-1.6-3.8-3.7-3.9c-1,0-2,0.4-2.7,1.1
	c-0.7,0.6-1.1,1.5-1.2,2.5l0,0V31.4z"/>
</svg>
